<?xml version="1.0" encoding="UTF-8" standalone="no"?>
<!-- Created with Inkscape (http://www.inkscape.org/) -->

<svg
   width="297mm"
   height="210mm"
   viewBox="0 0 1122.5197 793.70081"
   version="1.1"
   id="svg5"
   inkscape:version="1.2.2 (b0a8486541, 2022-12-01)"
   sodipodi:docname="001_borg_with_borgmatic.svg"
   xmlns:inkscape="http://www.inkscape.org/namespaces/inkscape"
   xmlns:sodipodi="http://sodipodi.sourceforge.net/DTD/sodipodi-0.dtd"
   xmlns="http://www.w3.org/2000/svg"
   xmlns:svg="http://www.w3.org/2000/svg">
  <sodipodi:namedview
     id="namedview7"
     pagecolor="#ffffff"
     bordercolor="#000000"
     borderopacity="0.25"
     inkscape:showpageshadow="2"
     inkscape:pageopacity="0.0"
     inkscape:pagecheckerboard="0"
     inkscape:deskcolor="#d1d1d1"
     inkscape:document-units="mm"
     showgrid="true"
     inkscape:zoom="2.0806815"
     inkscape:cx="683.42993"
     inkscape:cy="240.54619"
     inkscape:window-width="1920"
     inkscape:window-height="1034"
     inkscape:window-x="0"
     inkscape:window-y="0"
     inkscape:window-maximized="1"
     inkscape:current-layer="layer1">
    <inkscape:grid
       type="xygrid"
       id="grid7669"
       units="mm"
       spacingx="18.897638"
       spacingy="9.4488191" />
  </sodipodi:namedview>
  <defs
     id="defs2">
    <marker
       markerWidth="112.33777"
       markerHeight="34.164678"
       refX="56.168884"
       refY="17.082339"
       orient="auto"
       id="marker9981">
      <path
         style="fill:#28170b;fill-opacity:1;stroke:none;stroke-width:1.00157;stroke-dasharray:none;stroke-opacity:1"
         id="path9979"
         d="m 2.0693717,10.252552 c 0.22074,-0.14943 0.43497,-0.3089803 0.66223,-0.4483003 0.75863,-0.46509 1.80411,-0.99881 2.55759,-1.38841 0.63029,-0.32591 3.5437899,-1.8115099 4.0569999,-2.0549199 0.8823804,-0.41851 1.7805404,-0.80289 2.6708104,-1.20433 3.358159,-1.38026 6.852869,-2.8880299 10.576619,-2.4419599 2.16154,0.2589299 2.39546,0.5920099 4.26148,1.5686599 0.57633,0.52806 1.23789,0.97604 1.72899,1.58418 0.66272,0.82068 1.15618,1.7651799 1.70379,2.6667599 0.73586,1.21149 1.43917,2.4425203 2.14589,3.6712403 0.77658,1.35016 1.48566,2.73991 2.30392,4.06522 2.36642,3.832809 2.95523,4.374989 5.72371,7.887009 2.72523,3.05451 5.54431,6.0865 9.17587,8.08343 1.00521,0.55274 2.05093,1.06033 3.1526,1.38015 3.130999,0.90896 3.881899,0.48702 7.066459,0.10239 4.82546,-1.21868 8.88411,-4.14224 13.2494,-6.38136 3.03587,-1.5572 2.50287,-1.26223 5.53437,-2.38971 1.49499,-0.35746 2.41788,-0.79203 3.92862,-0.45699 1.51237,0.33541 2.98627,1.85723 4.15901,2.75986 0.61667,0.47464 1.2597,0.91403 1.88955,1.37104 3.00688,1.90186 6.35103,3.15761 9.930199,3.31338 2.354851,0.10249 2.857621,-0.11576 5.126761,-0.52702 2.83668,-0.6642 5.39865,-2.04382 7.91417,-3.46128 1.62914,-0.91962 0.3286,-3.22356 -1.30054,-2.30394 v 0 c -2.26048,1.27841 -4.55734,2.54009 -7.10093,3.16481 -1.94457,0.37865 -2.31915,0.56037 -4.353931,0.49721 -3.119739,-0.0968 -6.035599,-1.18863 -8.664229,-2.82615 -0.58736,-0.42423 -1.18747,-0.83135 -1.76208,-1.2727 -1.2255,-0.94132 -2.12011,-1.89195 -3.53575,-2.57789 -2.66839,-1.29297 -4.41346,-0.95143 -7.15835,-0.15809 -3.22007,1.21249 -2.69825,0.91419 -5.85999,2.5374 -1.06834,0.54847 -2.12349,1.12267 -3.1727,1.7069 -2.96839,1.65289 -5.84633,3.50934 -9.17673,4.38254 -2.45321,0.37312 -3.22183,0.75782 -5.666429,0.0899 -0.95912,-0.26206 -1.87146,-0.69113 -2.74724,-1.16188 -3.39997,-1.82758 -6.00315,-4.6829 -8.55177,-7.51159 -2.62578,-3.31908 -3.25715,-3.92104 -5.49837,-7.551929 -5.81676,-9.4234502 1.05829,1.03918 -4.54299,-7.8886603 -0.68324,-1.0890299 -1.32159,-2.2209999 -2.16195,-3.1939199 -0.65845,-0.76232 -1.52997,-1.3106999 -2.29496,-1.9660399 -2.39874,-1.15925 -2.726,-1.57493999 -5.42909,-1.84851999 -4.11198,-0.41615999 -7.97328,1.12108999 -11.681859,2.67619999 -0.92356,0.4173099 -1.8550304,0.8175199 -2.7706604,1.2519299 -0.51149,0.24267 -3.4729099,1.75224 -4.0986499,2.07632 -1.05471,0.54626 -1.83139,0.94044 -2.8190099,1.5455399 -0.17651,0.10815 -0.34081003,0.23504 -0.51122003,0.35256 -1.61289996,0.9478 -0.27251999,3.2287903 1.34038993,2.2809903 z" />
    </marker>
  </defs>
  <g
     inkscape:label="Layer 1"
     inkscape:groupmode="layer"
     id="layer1">
    <path
       style="fill:#28170b;fill-opacity:1;stroke:none;stroke-width:1.00157;stroke-dasharray:none;stroke-opacity:1"
       id="path9900"
       d="m 453.23776,373.06419 c -4.20817,4.3324 -6.28679,10.41856 -7.31672,16.27115 -0.30614,1.7396 -0.40829,3.509 -0.61244,5.2635 -0.25072,6.97713 1.15849,14.09658 5.36215,19.84043 0.93459,1.27701 1.92407,2.57621 3.21169,3.49611 2.05581,1.46871 4.45617,2.3825 6.68425,3.57375 1.80988,0.30238 3.59719,0.81106 5.42963,0.90715 10.11188,0.53026 19.86426,-3.87278 28.84872,-7.91948 2.8625,-1.39245 5.6947,-2.8709 8.35297,-4.629 0.76592,-0.50654 1.6187,-1.47869 2.52909,-1.7037 -0.88108,-0.38928 -1.68004,-1.15794 -2.64323,-1.16783 -0.40885,-0.004 0.30711,0.75833 0.43948,1.14518 0.21576,0.63059 0.39395,1.27353 0.60447,1.90589 1.29587,3.89261 2.83524,6.74491 4.89183,10.31252 2.46647,3.33827 3.80145,5.52811 7.01761,8.27661 5.23808,4.47642 12.9252,8.55129 19.71662,9.82662 2.16121,0.40585 4.38199,0.3745 6.57299,0.56175 2.26589,-0.30076 4.57912,-0.35211 6.79769,-0.90229 9.8273,-2.43704 19.69475,-9.25058 27.79918,-15.20068 1.83329,-1.15656 3.89076,-3.64292 6.36229,-3.49717 0.57473,0.0339 1.07161,0.50919 1.64725,0.51936 0.41598,0.007 -1.43815,-0.79954 -1.13902,-0.51039 0.75715,0.7319 1.69732,1.24696 2.54599,1.87043 5.47615,4.00599 11.40732,7.64369 18.2568,8.50852 4.7365,0.59804 6.0049,0.17609 10.77658,-0.33054 1.86992,-0.49294 3.79684,-0.80582 5.60976,-1.47882 9.35999,-3.47465 16.75889,-10.50565 23.41207,-17.67768 3.18892,-3.00529 4.85939,-7.13602 7.62355,-10.44559 4.57018,-4.64737 8.8915,-9.54154 12.41135,-15.048 1.09011,-1.70535 2.06035,-3.48442 3.09053,-5.22664 3.55468,-6.75108 6.3044,-14.03459 5.82139,-21.79312 -0.27656,-4.44244 -0.9049,-5.46678 -2.27458,-9.58123 -0.72004,-1.34048 -1.31316,-2.75733 -2.16011,-4.02145 -3.86303,-5.76575 -10.4051,-9.81541 -16.86851,-12.01413 -1.36664,-0.46491 -2.86026,-0.39274 -4.2904,-0.58911 -8.28024,0.22016 -15.67764,3.68645 -22.39312,8.26892 -1.6424,1.21362 -3.2526,2.51082 -4.60906,4.04478 1.15278,0.481 2.22156,1.26794 3.45834,1.44302 0.33432,0.0473 -0.13621,-0.66223 -0.23137,-0.9862 -0.82822,-2.81954 -2.26863,-5.16966 -3.96084,-7.54548 -3.74626,-4.43779 -8.61826,-7.74886 -13.98977,-9.97685 -2.84168,-1.17866 -5.42676,-1.03683 -8.42639,-1.18772 -1.52577,0.21453 -3.07846,0.28661 -4.57732,0.64358 -8.22444,1.95875 -14.67213,7.89423 -20.51917,13.64282 -2.15498,2.341 -4.19168,4.79347 -6.18034,7.27666 -0.74858,0.93473 -1.25198,2.00801 -2.4056,2.42931 -0.18538,-0.11634 -0.75815,-0.43329 -0.55615,-0.34903 0.80748,0.33683 1.50475,1.14806 2.37881,1.10933 0.52055,-0.0231 -0.69933,-0.77283 -1.03809,-1.16874 -0.45711,-0.53422 -0.89081,-1.08821 -1.34922,-1.62131 -1.79403,-2.08634 -1.53893,-1.7532 -3.55318,-3.76986 -6.53978,-5.73776 -14.39809,-8.4298 -22.78157,-10.00628 -7.04534,-0.75639 -14.10678,0.25067 -20.51915,3.33443 -1.29738,0.62392 -2.51727,1.39758 -3.77591,2.09637 -6.14532,3.89601 -10.92056,9.39828 -15.38146,15.05647 -1.04825,1.28882 -2.25786,2.33259 -3.93416,1.51522 -0.35178,-0.17152 -1.36309,-0.76303 -1.00217,-0.61169 0.65497,0.27463 1.2599,0.65594 1.88985,0.98391 -3.47412,-2.51556 -7.08732,-4.93058 -11.08992,-6.52566 -2.93555,-1.07761 -6.08442,-1.21102 -9.17723,-1.10615 -2.63386,0.14959 -5.22743,0.55567 -7.64475,1.63059 -2.24262,1.20301 -4.13966,2.94187 -5.98842,4.66819 -1.78993,1.55582 -3.07984,3.46952 -4.18056,5.54394 -1.52875,2.69733 -2.47951,5.59254 -3.14301,8.60471 -0.28193,2.92572 -1.40246,5.93808 -1.08226,8.89239 1.34557,1.19126 0.83842,1.47719 1.54593,0.81282 0,0 -0.13206,-0.0736 -0.13206,-0.0736 v 0 c 0.0301,0.85308 -0.13393,0.43256 1.20047,0.62657 1.01081,-2.72878 0.48329,-5.90556 1.38582,-8.69 0.66992,-2.97715 1.63455,-5.82942 3.17676,-8.48115 1.09957,-2.03038 2.36315,-3.92244 4.135,-5.44089 1.82756,-1.70264 3.72732,-3.3902 5.95778,-4.54852 2.39986,-1.01393 4.9606,-1.4072 7.55695,-1.53126 3.09182,-0.0632 6.22515,0.12038 9.13798,1.2571 0.45918,0.1928 1.61789,1.01459 1.37753,0.57842 -0.31054,-0.56355 -1.16536,-0.58936 -1.62927,-1.03525 -0.38301,-0.36815 0.92862,0.51707 1.38061,0.79623 1.34878,0.83306 2.60956,1.7962 3.89586,2.71963 1.40492,0.85676 2.79813,1.73301 4.21475,2.57029 2.32134,1.37201 3.54151,0.6606 5.13834,-1.37681 1.07452,-1.43516 2.03582,-2.95375 3.1304,-4.37367 3.27703,-4.25107 7.31489,-7.87713 11.80467,-10.80304 1.25429,-0.6873 2.46991,-1.45045 3.76287,-2.06191 6.42051,-3.03634 13.48781,-3.97277 20.50815,-3.12319 3.54434,0.6948 4.31969,0.73456 7.7678,1.86199 1.25278,0.40962 2.45148,0.97458 3.70627,1.37799 0.1869,0.0601 0.4138,-0.0858 0.58895,0.003 2.46715,1.24921 3.02274,1.88009 5.06655,3.56165 1.92662,1.91725 1.79737,1.70263 3.48997,3.70644 1.88192,2.22795 3.5947,5.10461 6.87799,5.45406 1.72293,-0.95987 2.56686,-3.15638 3.674,-4.69564 0.61566,-0.85594 1.26557,-1.68758 1.93502,-2.50212 0.82006,-0.99779 1.68796,-1.95529 2.53194,-2.93293 5.76727,-5.78965 12.17372,-11.61918 20.40256,-13.4763 1.495,-0.3374 3.04062,-0.38745 4.56093,-0.58117 6.7387,0.44988 2.08752,-0.14127 8.4427,1.36022 0.17347,0.041 0.37966,-0.074 0.53455,0.0142 2.92826,1.6678 5.45679,3.90358 7.59991,6.48989 1.34609,1.90845 2.51154,3.7048 3.31343,5.91007 0.16124,0.44343 0.28846,0.89911 0.40518,1.35628 0.0785,0.30736 -0.0587,0.72533 0.17971,0.93454 1.08192,0.94924 2.40072,1.58839 3.60108,2.38259 1.09703,-1.66633 2.64437,-2.9384 4.20661,-4.15421 6.57665,-4.66764 13.91498,-8.07272 22.14036,-8.11641 1.42146,0.22247 2.83088,0.54445 4.26438,0.6674 0.29883,0.0256 0.59655,-0.34863 0.8707,-0.22697 3.89547,1.72879 7.57427,5.13618 9.97513,8.607 0.86543,1.25112 1.4838,2.65621 2.2257,3.98431 1.41123,4.06107 2.06143,5.0997 2.38144,9.50038 0.56041,7.7067 -2.14264,14.9644 -5.67149,21.67242 -1.04076,1.72583 -2.01288,3.49496 -3.12227,5.1775 -3.61994,5.49011 -8.16042,10.2102 -12.91904,14.71083 -2.75789,3.28972 -4.25073,7.51019 -7.25377,10.65316 -6.41171,7.39008 -13.74141,14.27894 -23.17478,17.5834 -1.82602,0.63964 -3.75567,0.93217 -5.6335,1.39825 -1.84025,0.17569 -3.67247,0.49193 -5.52075,0.52707 -6.17232,0.11735 -12.33331,-1.41733 -17.19195,-5.29225 -2.55598,-1.92817 -6.39473,-5.48452 -9.56366,-5.36709 -2.46463,0.0913 -4.3426,2.57168 -6.17957,3.79934 -8.06572,6.4949 -17.049,12.91921 -27.32148,15.31809 -2.22406,0.51937 -4.53499,0.54649 -6.80248,0.81974 -7.30365,-0.69472 -5.84574,-0.11941 -12.77809,-2.50912 -1.09852,-0.37868 -2.20884,-0.77109 -3.20735,-1.36531 -4.97499,-2.96062 -8.893,-6.91052 -12.05478,-11.73528 -2.062,-3.58859 -2.45365,-3.94747 -3.90418,-7.59228 -0.33551,-0.84305 -0.5906,-1.71616 -0.86261,-2.58179 -0.19607,-0.62397 -0.36183,-1.25707 -0.54132,-1.88602 -0.11606,-0.40666 -0.0315,-0.93734 -0.34534,-1.2208 -0.97583,-0.8814 -2.22431,-1.40314 -3.33647,-2.10471 -0.94621,0.43269 -1.68863,1.19418 -2.52662,1.80359 -2.50959,1.82505 -5.18988,3.39662 -7.92674,4.85406 -8.74056,4.393 -18.46814,8.61404 -28.50505,7.95577 -1.82569,-0.11974 -3.60026,-0.65427 -5.40039,-0.98141 -0.75202,-0.3147 -1.6182,-0.43648 -2.25606,-0.94412 -5.27908,-4.20131 -8.0704,-11.49406 -8.85097,-17.99849 -0.21158,-1.76308 -0.11721,-3.54953 -0.17582,-5.32429 0.16908,-1.76323 0.23002,-3.54019 0.50723,-5.28968 0.91828,-5.79515 2.86761,-12.00608 7.14429,-16.20135 z" />
    <g
       id="g10546"
       transform="translate(-4.0549393,7.1929136)">
      <path
         style="fill:#000000;fill-opacity:1;stroke:none;stroke-width:1.00157;stroke-dasharray:none;stroke-opacity:1"
         id="path10222"
         d="m 520.2557,368.43253 c -0.32515,1.23562 -0.51592,2.50203 -0.71711,3.76227 -0.36868,2.54246 -0.81922,5.07156 -1.28095,7.59843 -0.30776,1.5854 -0.56898,3.17927 -0.89531,4.76097 -0.37726,1.83234 2.21405,2.36587 2.59131,0.53354 v 0 c 0.32906,-1.60127 0.59668,-3.21391 0.90658,-4.81897 0.46525,-2.54641 0.91927,-5.09506 1.291,-7.65714 0.18486,-1.15938 0.35845,-2.32471 0.65136,-3.46289 0.50644,-1.80091 -2.04044,-2.51713 -2.54688,-0.71621 z" />
      <path
         style="fill:#000000;fill-opacity:1;stroke:none;stroke-width:1.00157;stroke-dasharray:none;stroke-opacity:1"
         id="path10224"
         d="m 513.02058,371.36126 c 0.24119,-0.006 0.48324,0.002 0.72358,-0.0189 0.55592,-0.0493 1.41113,-0.21993 1.93007,-0.33554 1.41781,-0.31585 2.78911,-0.74415 4.16778,-1.19731 1.99428,-0.68847 3.96398,-1.44499 5.94854,-2.16045 0.20865,0.0993 0.44494,-0.28966 0.66094,-0.18302 1.86039,-0.19676 1.58213,-2.82775 -0.27826,-2.63099 v 0 c -0.44128,0.0641 -0.8665,0.14877 -1.28008,0.32519 -1.96145,0.70734 -3.9086,1.45417 -5.87908,2.13649 -1.84216,0.60856 -3.70302,1.17632 -5.63029,1.44388 -1.85306,-0.25682 -2.21626,2.3638 -0.3632,2.62062 z" />
      <path
         style="fill:#000000;fill-opacity:1;stroke:none;stroke-width:1.00157;stroke-dasharray:none;stroke-opacity:1"
         id="path10226"
         d="m 525.21317,369.41008 c -0.73103,2.17949 -1.13819,4.45417 -1.58815,6.70392 -0.48562,2.37539 -0.86597,4.77185 -1.37422,7.14263 -0.0247,0.0785 -0.0495,0.15697 -0.0742,0.23545 -0.53311,1.7932 2.00287,2.54713 2.53597,0.75393 v 0 c 0.0418,-0.14524 0.0835,-0.29047 0.12532,-0.4357 0.50914,-2.38278 0.89594,-4.79 1.38145,-7.17757 0.41671,-2.08462 0.7987,-4.1874 1.44103,-6.21728 0.71091,-1.73043 -1.73629,-2.73581 -2.4472,-1.00538 z" />
      <path
         style="fill:#000000;fill-opacity:1;stroke:none;stroke-width:1.00157;stroke-dasharray:none;stroke-opacity:1"
         id="path10228"
         d="m 526.00483,378.97044 c 1.2275,-0.18939 2.42987,-0.5077 3.63223,-0.81328 0.42102,-0.10903 0.84198,-0.21825 1.26303,-0.32716 1.81116,-0.46849 1.14862,-3.02986 -0.66254,-2.56137 v 0 c -0.41745,0.10798 -0.83482,0.21625 -1.25223,0.32439 -1.14375,0.29075 -2.28702,0.59592 -3.45499,0.77465 -1.84044,0.33552 -1.36594,2.93829 0.4745,2.60277 z" />
      <path
         style="fill:#000000;fill-opacity:1;stroke:none;stroke-width:1.00157;stroke-dasharray:none;stroke-opacity:1"
         id="path10230"
         d="m 530.82254,368.85468 c -0.47051,2.33996 -0.80992,4.7035 -1.19199,7.05887 -0.45503,2.75687 -0.97994,5.50142 -1.46826,8.25239 -0.0196,0.14919 -0.0393,0.29838 -0.0589,0.44757 -0.23773,1.85561 2.38649,2.19181 2.62422,0.3362 v 0 c 0.0132,-0.10715 0.0264,-0.2143 0.0396,-0.32145 0.49045,-2.76389 1.01814,-5.52124 1.47484,-8.29111 0.37576,-2.31667 0.70942,-4.64139 1.17057,-6.94319 0.38133,-1.8315 -2.20879,-2.37078 -2.59012,-0.53928 z" />
      <path
         style="fill:#000000;fill-opacity:1;stroke:none;stroke-width:1.00157;stroke-dasharray:none;stroke-opacity:1"
         id="path10232"
         d="m 534.33286,368.52188 c -0.37017,1.82663 -0.60601,3.6766 -0.86334,5.52144 -0.39393,2.84924 -0.8313,5.6922 -1.22273,8.54177 -0.0945,0.72596 -0.18868,1.45258 -0.24423,2.18281 -0.008,0.10045 -0.0502,0.70013 -0.0224,0.82257 0.0614,0.27014 0.17539,0.52557 0.26309,0.78836 0.33319,0.22726 0.62084,0.54313 0.99957,0.6818 0.39233,0.14365 1.08634,-0.0484 1.47694,-0.16 0.73201,-0.20905 1.45128,-0.47684 2.17257,-0.71936 0.80625,-0.27509 1.62168,-0.5214 2.43971,-0.75856 1.79672,-0.52115 1.05972,-3.06209 -0.737,-2.54095 v 0 c -0.85359,0.2477 -1.70447,0.50489 -2.54587,0.7918 -0.6716,0.22581 -1.34197,0.45533 -2.01654,0.67219 -0.0916,0.0294 -0.23386,-2.9e-4 -0.27526,0.0865 -0.14686,0.30798 2.46993,-0.45351 0.79153,0.64904 0.0255,0.15221 0.0392,0.30684 0.0764,0.45662 0.0144,0.058 -0.009,-0.11941 -0.008,-0.17918 0.003,-0.11962 0.0113,-0.23908 0.0202,-0.35841 0.0514,-0.68764 0.14135,-1.37167 0.22985,-2.05526 0.39108,-2.84775 0.82851,-5.68884 1.22197,-8.53627 0.24956,-1.78915 0.477,-3.58348 0.83472,-5.3552 0.376,-1.8326 -2.21568,-2.36433 -2.59168,-0.53174 z" />
      <path
         style="fill:#000000;fill-opacity:1;stroke:none;stroke-width:1.00157;stroke-dasharray:none;stroke-opacity:1"
         id="path10234"
         d="m 535.55041,377.42911 c 0.83946,-0.22126 1.65748,-0.51578 2.47726,-0.79954 1.76785,-0.61197 0.9024,-3.11208 -0.86545,-2.50011 v 0 c -0.7289,0.25234 -1.45614,0.51317 -2.1996,0.7201 -1.82401,0.41562 -1.23623,2.99517 0.58779,2.57955 z" />
      <path
         style="fill:#000000;fill-opacity:1;stroke:none;stroke-width:1.00157;stroke-dasharray:none;stroke-opacity:1"
         id="path10236"
         d="m 536.64759,368.48236 c 1.17735,-0.2995 2.35315,-0.60502 3.52667,-0.91919 0.53477,-0.13884 0.29928,-0.0897 0.70308,-0.16301 1.83701,-0.3538 1.33666,-2.95173 -0.50035,-2.59792 v 0 c -0.57448,0.11444 -0.27854,0.0472 -0.88699,0.20527 -1.16047,0.31074 -2.32324,0.61278 -3.4875,0.90903 -1.81431,0.45615 -1.16921,3.02197 0.64509,2.56582 z" />
      <path
         style="fill:#000000;fill-opacity:1;stroke:none;stroke-width:1.00157;stroke-dasharray:none;stroke-opacity:1"
         id="path10240"
         d="m 554.30905,369.13286 c -0.22352,3.1156 -0.70549,6.20667 -1.14443,9.29732 -0.28896,1.9405 -0.53322,3.88777 -0.84945,5.82412 -0.301,1.84639 2.3102,2.27207 2.6112,0.42567 v 0 c 0.31805,-1.95439 0.56743,-3.91916 0.85764,-5.87779 0.45048,-3.17208 0.94463,-6.34484 1.1677,-9.54309 0.0893,-1.86864 -2.5534,-1.99487 -2.64266,-0.12623 z" />
      <path
         style="fill:#000000;fill-opacity:1;stroke:none;stroke-width:1.00157;stroke-dasharray:none;stroke-opacity:1"
         id="path10242"
         d="m 558.1907,368.34373 c -0.22523,2.3385 -0.46418,4.67526 -0.73132,7.00936 -0.34714,2.75789 -0.68717,5.51832 -1.15668,8.25864 -0.1102,0.58585 -0.23004,1.16939 -0.27549,1.76451 -10e-4,0.0372 -0.003,0.0744 -0.004,0.11161 -0.0325,1.87048 2.61274,1.91649 2.64527,0.046 v 0 c -9.1e-4,0.0123 -0.002,0.0246 -0.003,0.0369 0.0353,-0.51087 0.16148,-1.00844 0.24472,-1.5126 0.47699,-2.7888 0.82545,-5.59753 1.17746,-8.40428 0.26748,-2.33837 0.5076,-4.67931 0.73275,-7.02211 0.20364,-1.85965 -2.4263,-2.14765 -2.62995,-0.288 z" />
      <path
         style="fill:#000000;fill-opacity:1;stroke:none;stroke-width:1.00157;stroke-dasharray:none;stroke-opacity:1"
         id="path10280"
         d="m 567.23265,370.80352 c -0.28611,1.26371 -0.46826,2.54861 -0.67897,3.82646 -0.2876,1.82408 -0.66317,3.632 -1.03888,5.43941 -0.39877,1.91916 -0.77057,3.8438 -1.17083,5.76264 -0.10731,0.44986 -0.0541,0.26901 -0.14198,0.54744 -0.53716,1.79199 1.9971,2.55165 2.53426,0.75966 v 0 c 0.13173,-0.45134 0.0629,-0.19646 0.19766,-0.76694 0.40026,-1.91944 0.77252,-3.84458 1.17119,-5.76436 0.38315,-1.84326 0.76544,-3.68719 1.059,-5.54741 0.19931,-1.20875 0.37193,-2.42401 0.63657,-3.6206 0.44993,-1.81586 -2.11808,-2.45216 -2.56802,-0.6363 z" />
      <path
         style="fill:#000000;fill-opacity:1;stroke:none;stroke-width:1.00157;stroke-dasharray:none;stroke-opacity:1"
         id="path10282"
         d="m 564.95566,370.38682 c 1.88573,-0.0232 3.76927,-0.0937 5.65365,0.006 1.03688,0.11015 0.54498,0.033 1.47759,0.2191 1.83719,0.35286 2.33621,-2.24532 0.49902,-2.59818 v 0 c -1.20389,-0.22448 -0.59049,-0.13546 -1.84077,-0.2631 -1.92278,-0.0967 -3.84421,-0.0403 -5.76826,-0.009 -1.87071,-0.015 -1.89194,2.63058 -0.0212,2.64559 z" />
      <path
         style="fill:#000000;fill-opacity:1;stroke:none;stroke-width:1.00157;stroke-dasharray:none;stroke-opacity:1"
         id="path10284"
         d="m 570.76263,372.62701 c 0.022,1.59943 -0.22615,3.19644 -0.43092,4.77932 -0.31988,2.26923 -0.64685,4.53736 -0.92473,6.8122 -0.0704,0.75567 -0.3198,1.63757 0.18044,2.32456 0.49135,0.67478 0.84328,0.65359 1.54352,0.83445 1.37121,0.11182 2.74163,-0.12531 4.09588,-0.31861 0.52346,-0.0762 0.26833,-0.0344 0.76559,-0.1243 1.84011,-0.33732 1.36308,-2.93962 -0.47703,-2.60231 v 0 c -0.39892,0.0745 -0.17835,0.037 -0.66254,0.1075 -1.07698,0.15384 -2.15927,0.32892 -3.24928,0.3346 -0.0852,0.22466 0.0302,-0.12588 0.27117,0.4391 0.0592,0.1387 0.0369,0.29946 0.0634,0.44791 0.009,0.0491 -0.0127,-0.0995 -0.0101,-0.14935 0.007,-0.13379 0.0243,-0.26684 0.0387,-0.40004 0.0206,-0.1911 0.0443,-0.38187 0.0664,-0.57281 0.27698,-2.26874 0.60404,-4.53063 0.92242,-6.79383 0.23769,-1.8413 0.55205,-3.71437 0.41314,-5.57442 -0.32245,-1.84277 -2.92853,-1.38674 -2.60607,0.45603 z" />
      <path
         style="fill:#000000;fill-opacity:1;stroke:none;stroke-width:1.00157;stroke-dasharray:none;stroke-opacity:1"
         id="path10292"
         d="m 572.87506,373.597 c 0.85414,-0.0167 1.70645,-0.0611 2.55836,-0.12406 0.49916,0.009 1.00667,-0.13892 1.50572,-0.10418 1.87073,0.0134 1.8897,-2.63219 0.019,-2.6456 v 0 c -0.57492,0.004 -1.14671,0.0754 -1.72018,0.11134 -0.84212,0.0625 -1.68459,0.10281 -2.52882,0.12204 -1.86709,0.11735 -1.70113,2.7578 0.16595,2.64046 z" />
      <path
         style="fill:#000000;fill-opacity:1;stroke:none;stroke-width:1.00157;stroke-dasharray:none;stroke-opacity:1"
         id="path10294"
         d="m 572.53618,380.60116 c 0.84731,-0.10058 1.68367,-0.27166 2.518,-0.447 0.1776,-0.0422 0.3559,-0.077 0.53777,-0.0913 1.86047,-0.19601 1.58328,-2.82711 -0.2772,-2.63111 v 0 c -0.27056,0.0313 -0.53994,0.0673 -0.8048,0.13332 -0.75333,0.15838 -1.5081,0.31511 -2.27301,0.40739 -1.85877,0.2116 -1.55953,2.84029 0.29924,2.6287 z" />
      <path
         style="fill:#000000;fill-opacity:1;stroke:none;stroke-width:1.00157;stroke-dasharray:none;stroke-opacity:1"
         id="path10296"
         d="m 578.80783,372.30341 c -0.0158,1.05566 -0.068,2.10984 -0.13251,3.16348 -0.13142,1.86913 -0.38417,3.72692 -0.63327,5.58317 -0.22617,1.66461 -0.44521,3.33018 -0.63823,4.99898 -0.0511,0.48745 -0.0296,0.25922 -0.0662,0.68453 -0.15873,1.86402 2.4774,2.0885 2.63613,0.22448 v 0 c 0.0307,-0.36508 0.0121,-0.16331 0.0582,-0.6051 0.19107,-1.65281 0.40834,-3.30237 0.63224,-4.95103 0.25755,-1.91948 0.51772,-3.84068 0.65185,-5.77361 0.0669,-1.09589 0.12098,-2.19237 0.13722,-3.29035 0.0244,-1.87061 -2.62101,-1.90516 -2.64545,-0.0345 z" />
      <path
         style="fill:#000000;fill-opacity:1;stroke:none;stroke-width:1.00157;stroke-dasharray:none;stroke-opacity:1"
         id="path10298"
         d="m 581.37167,373.79226 c 0.15179,-0.24754 0.35653,-0.40008 0.61244,-0.5225 0.16416,-0.0509 0.33358,-0.12524 0.50897,-0.11086 0.21659,0.0281 0.44533,4.9e-4 0.65405,0.073 0.20563,0.0944 0.35482,0.27853 0.49936,0.44678 0.27579,0.34044 0.45727,0.71849 0.55113,1.14326 0.0839,0.39995 -0.0113,0.76639 -0.18908,1.12415 -0.2947,0.44037 -0.7576,0.73876 -1.17757,1.04942 -0.51368,0.40562 -1.10817,0.64517 -1.72722,0.83425 -1.3533,0.37978 -0.86714,0.21921 -0.11629,2.75968 0.0208,0.0705 0.14631,0.0145 0.21898,0.0254 0.0579,0.009 0.11505,0.0223 0.17258,0.0334 0.29755,0.0732 0.47015,0.31636 0.60679,0.57367 0.24991,0.48375 0.38916,1.01254 0.51222,1.5399 0.0999,0.49859 0.17718,1.00175 0.25287,1.50454 0.0795,0.59757 0.13396,1.19825 0.1964,1.7978 0.0576,0.71694 0.0801,0.59283 0.54099,1.44008 1.35556,1.28927 3.17888,-0.62778 1.82332,-1.91706 v 0 c 0.56674,1.27569 0.27545,0.69438 0.26712,0.20288 -0.0667,-0.63993 -0.12457,-1.28113 -0.21181,-1.91866 -0.0868,-0.57368 -0.17411,-1.14808 -0.29366,-1.71598 -0.19322,-0.8148 -0.42963,-1.62508 -0.85508,-2.35339 -0.10407,-0.15499 -0.19746,-0.31772 -0.31223,-0.46497 -0.51643,-0.66261 -1.24222,-1.11523 -2.06084,-1.2931 -0.11113,-0.019 -0.22188,-0.0405 -0.3334,-0.0571 -0.0752,-0.0112 -0.22566,-0.10229 -0.22647,-0.0263 -0.0298,2.7749 -0.53514,2.71837 0.60325,2.39579 0.90057,-0.283 1.7662,-0.65287 2.51846,-1.23581 0.79085,-0.58777 1.5844,-1.19643 2.02263,-2.10766 0.39199,-0.93464 0.56602,-1.82606 0.33479,-2.8323 -0.22134,-0.84071 -0.57977,-1.61191 -1.15395,-2.27464 -0.51263,-0.5552 -1.08245,-1.04853 -1.8318,-1.24326 -0.4578,-0.10362 -0.92232,-0.15018 -1.39218,-0.14732 -0.57029,0.0338 -1.1216,0.16106 -1.63741,0.41469 -0.63776,0.34801 -1.19669,0.7917 -1.59068,1.4128 -1.02488,1.56505 1.18845,3.01445 2.21332,1.44939 z" />
      <path
         style="fill:#000000;fill-opacity:1;stroke:none;stroke-width:1.00157;stroke-dasharray:none;stroke-opacity:1"
         id="path10300"
         d="m 587.58022,372.76266 c -0.0567,0.86052 -0.0632,1.72358 -0.0883,2.58546 -0.0338,1.21689 -0.091,2.43296 -0.15133,3.64878 -0.0573,1.07453 -0.13378,2.1479 -0.19851,3.22198 -0.059,1.04112 -0.0854,2.08369 -0.10713,3.12613 -0.009,0.48816 -0.0103,0.24906 0.003,0.71729 0.0618,1.86975 2.70599,1.7824 2.64422,-0.0874 v 0 c -0.0137,-0.33049 -0.01,-0.13893 -0.002,-0.57476 0.021,-1.00781 0.0462,-2.01572 0.10292,-3.02226 0.0652,-1.08344 0.14256,-2.16614 0.20005,-3.25005 0.0611,-1.23374 0.11915,-2.46773 0.15344,-3.70256 0.0235,-0.80493 0.0314,-1.61076 0.0778,-2.41475 0.1753,-1.86254 -2.45873,-2.11045 -2.63402,-0.24791 z" />
      <path
         style="fill:#000000;fill-opacity:1;stroke:none;stroke-width:1.00157;stroke-dasharray:none;stroke-opacity:1"
         id="path10302"
         d="m 588.45553,372.83315 c 0.39841,0.75861 0.64418,1.58302 0.88198,2.4024 0.33664,1.24383 0.59216,2.50787 0.83846,3.77212 0.20874,1.07828 0.39402,2.16086 0.57149,3.24465 0.1212,0.87793 0.3298,1.73745 0.58498,2.58495 0.19159,0.63688 0.44119,1.25431 0.73399,1.85095 0.0517,0.0859 0.10346,0.17179 0.15519,0.25768 1.00598,1.57727 3.23658,0.1546 2.2306,-1.42267 v 0 c -0.005,-0.003 -0.01,-0.006 -0.0147,-0.009 -0.23234,-0.46303 -0.42064,-0.94743 -0.57251,-1.44261 -0.22354,-0.73636 -0.40334,-1.48348 -0.50664,-2.24716 -0.18182,-1.11001 -0.37167,-2.21877 -0.58555,-3.32312 -0.2618,-1.34291 -0.53428,-2.68546 -0.89515,-4.00587 -0.29075,-0.99517 -0.6,-1.99225 -1.08957,-2.91111 -0.88283,-1.64935 -3.21538,-0.40083 -2.33254,1.24853 z" />
      <path
         style="fill:#000000;fill-opacity:1;stroke:none;stroke-width:1.00157;stroke-dasharray:none;stroke-opacity:1"
         id="path10304"
         d="m 593.58291,371.06866 c 0.0106,0.91359 -0.0701,1.82433 -0.16376,2.73206 -0.13065,1.15704 -0.27466,2.31256 -0.41618,3.46831 -0.12971,1.05608 -0.24116,2.1144 -0.38331,3.16891 -0.19963,1.16177 -0.27265,2.33727 -0.34411,3.51206 -0.0356,0.51113 -0.0972,1.01982 -0.15637,1.52857 -0.21599,1.85826 2.41198,2.16371 2.62797,0.30545 v 0 c 0.0647,-0.55691 0.13122,-1.11383 0.16919,-1.67339 0.0675,-1.11062 0.13408,-2.22195 0.32537,-3.32001 0.14295,-1.06496 0.25713,-2.13346 0.38732,-3.20004 0.14359,-1.17272 0.28984,-2.34519 0.42192,-3.51928 0.1031,-1.0061 0.18987,-2.01556 0.17751,-3.02804 -0.018,-1.87068 -2.6635,-1.84529 -2.64555,0.0254 z" />
      <path
         style="fill:#000000;fill-opacity:1;stroke:none;stroke-width:1.00157;stroke-dasharray:none;stroke-opacity:1"
         id="path10306"
         d="m 596.79159,371.72908 c 0.0267,1.63344 -0.029,3.26703 -0.0968,4.89882 -0.11517,2.00904 -0.25418,4.01659 -0.3389,6.02725 -0.0375,0.64318 0.0159,1.28397 0.10021,1.9209 0.0612,0.45476 0.15746,0.90424 0.32382,1.33235 0.0182,0.0397 0.0367,0.0792 0.0545,0.11902 0.023,0.0512 -0.0672,-0.21274 -0.0614,-0.15689 0.016,0.15292 0.10594,0.32969 0.16318,0.46684 0.39235,0.75793 1.01864,1.00736 1.82735,1.12046 1.00468,0.071 2.00778,-0.0526 3.00059,-0.19477 0.37202,-0.0607 0.74432,-0.11783 1.11825,-0.1652 1.85561,-0.2377 1.51945,-2.86193 -0.33616,-2.62422 v 0 c -0.3874,0.0501 -0.77368,0.10653 -1.15904,0.17074 -0.77059,0.11159 -1.5469,0.21386 -2.32755,0.1844 -0.0237,0.001 -0.0564,-0.0156 -0.0711,0.003 -0.003,0.004 0.10768,0.0734 0.16264,0.12308 0.0908,0.0821 0.14257,0.1708 0.19082,0.28155 0.0618,0.1921 -0.0708,-0.27206 -0.1141,-0.33163 -0.0724,-0.15867 -0.11469,-0.47391 -0.14966,-0.68101 -0.0662,-0.48317 -0.10918,-0.96913 -0.079,-1.45746 0.0846,-2.01125 0.22513,-4.01931 0.33897,-6.029 0.0694,-1.68051 0.1265,-3.36281 0.0988,-5.045 -0.0259,-1.87059 -2.67135,-1.83391 -2.64541,0.0367 z" />
      <path
         style="fill:#000000;fill-opacity:1;stroke:none;stroke-width:1.00157;stroke-dasharray:none;stroke-opacity:1"
         id="path10308"
         d="m 599.60598,379.70092 c 0.66273,-0.067 1.31326,-0.22218 1.97663,-0.2822 1.86208,-0.18012 1.60736,-2.8135 -0.25472,-2.63338 v 0 c -0.66715,0.0672 -1.32416,0.20017 -1.9892,0.28345 -1.86119,0.189 -1.59391,2.82113 0.26729,2.63213 z" />
      <path
         style="fill:#000000;fill-opacity:1;stroke:none;stroke-width:1.00157;stroke-dasharray:none;stroke-opacity:1"
         id="path10476"
         d="m 598.53913,371.99163 c 0.76418,-0.0861 1.51621,-0.2413 2.26019,-0.43259 0.53027,-0.14017 1.06003,-0.2843 1.59709,-0.39657 0.0257,-0.002 0.0513,-0.004 0.077,-0.006 1.85465,-0.24507 1.50807,-2.86794 -0.34658,-2.62287 v 0 c -0.0919,0.0134 -0.18378,0.0269 -0.27567,0.0403 -0.57569,0.12194 -1.14498,0.27157 -1.7133,0.4238 -0.62244,0.16153 -1.25153,0.29194 -1.89122,0.36478 -1.8593,0.20682 -1.56683,2.83627 0.29248,2.62946 z" />
      <path
         style="fill:#000000;fill-opacity:1;stroke:none;stroke-width:1.00157;stroke-dasharray:none;stroke-opacity:1"
         id="path10478"
         d="m 606.52731,370.84418 c 0.0565,1.09328 -0.0187,2.18631 -0.10411,3.2758 -0.14224,1.81464 -0.42898,3.61292 -0.66703,5.41629 -0.23968,1.8959 -0.44898,3.79725 -0.77492,5.68087 -0.3177,1.8436 2.28954,2.29288 2.60724,0.44929 v 0 c 0.32933,-1.91837 0.54961,-3.85317 0.79062,-5.78409 0.24397,-1.85 0.53766,-3.6948 0.68174,-5.55652 0.0932,-1.19957 0.17194,-2.40301 0.10918,-3.60657 -0.0883,-1.86868 -2.73106,-1.74376 -2.64272,0.12493 z" />
      <path
         style="fill:#000000;fill-opacity:1;stroke:none;stroke-width:1.00157;stroke-dasharray:none;stroke-opacity:1"
         id="path10480"
         d="m 605.0072,371.08762 c 1.21844,-0.0205 2.43385,0.0134 3.65066,0.0758 0.75695,0.0374 1.51177,0.084 2.26501,0.16685 1.86,0.20044 2.14347,-2.43 0.28347,-2.63044 v 0 c -0.80283,-0.085 -1.60652,-0.14185 -2.41321,-0.17862 -1.23594,-0.0631 -2.47084,-0.10123 -3.70844,-0.0781 -1.86997,-0.0548 -1.94746,2.58974 -0.0775,2.64453 z" />
      <path
         style="fill:#000000;fill-opacity:1;stroke:none;stroke-width:1.00157;stroke-dasharray:none;stroke-opacity:1"
         id="path10482"
         d="m 558.58185,368.78053 c 0.097,0.46086 0.18995,0.92249 0.27542,1.38562 0.10268,0.52979 0.1831,1.06312 0.24899,1.59859 0.0755,0.62933 0.14336,1.25955 0.21124,1.88974 0.0659,0.63237 0.11008,1.2667 0.1649,1.90007 0.0587,0.63565 0.12075,1.27098 0.18232,1.90636 0.0672,0.70787 0.14975,1.41414 0.22722,2.12094 0.0808,0.78502 0.15001,1.57117 0.21926,2.35728 0.0749,0.81525 0.13751,1.63139 0.18778,2.44851 0.0311,0.67937 0.0498,1.35881 0.11072,2.03637 0.15463,1.49512 0.0262,0.79652 2.69779,0.55595 0.0798,-0.39413 0.16044,-0.78811 0.24308,-1.18166 0.12202,-0.57732 0.26645,-1.14968 0.40554,-1.72307 0.13193,-0.57092 0.29986,-1.13241 0.43983,-1.70128 0.12179,-0.56832 0.20406,-1.14406 0.30323,-1.71655 0.0815,-0.47828 0.17625,-0.954 0.27714,-1.42852 0.10691,-0.45089 0.20531,-0.90354 0.29627,-1.35789 0.0622,-0.34974 0.15226,-0.69344 0.23464,-1.03871 0.0976,-0.37569 0.17173,-0.75617 0.23532,-1.13887 0.0477,-0.28691 0.10429,-0.57228 0.16496,-0.85671 0.0549,-0.27602 0.0963,-0.55436 0.13228,-0.83339 0.0374,-0.26274 0.0499,-0.52783 0.0659,-0.79244 0.01,-0.14743 0.0134,-0.29513 0.0262,-0.44234 0.006,-0.0581 0.009,-0.11643 0.0129,-0.17471 0.11378,-1.86731 -2.52699,-2.02823 -2.64077,-0.16092 v 0 c -0.002,0.0364 -0.004,0.0729 -0.008,0.10921 -0.0144,0.16965 -0.0215,0.33964 -0.0312,0.5096 -0.0123,0.20489 -0.0199,0.41035 -0.049,0.6138 -0.0266,0.20745 -0.0568,0.41438 -0.0959,0.6199 -0.0689,0.32367 -0.13311,0.64839 -0.18733,0.97486 -0.0534,0.32216 -0.11547,0.64232 -0.19886,0.95832 -0.0898,0.37669 -0.18705,0.75183 -0.25537,1.13326 -0.0888,0.44407 -0.18598,0.8862 -0.28989,1.327 -0.1078,0.50741 -0.2089,1.01612 -0.29622,1.52752 -0.0886,0.51257 -0.1648,1.02742 -0.2659,1.53774 -0.13935,0.57117 -0.31104,1.13394 -0.44133,1.70745 -0.14553,0.59998 -0.29637,1.19894 -0.42364,1.80312 -0.0844,0.40186 -0.16673,0.80415 -0.2482,1.20661 0.84654,-0.0177 1.69365,-0.0887 2.53962,-0.0531 0.0551,0.002 0.0242,0.10766 0.0363,0.16151 9.6e-4,0.004 -0.002,-0.009 -0.003,-0.0129 -0.0173,-0.12346 -0.0277,-0.24781 -0.0415,-0.37166 -0.0597,-0.65206 -0.0714,-1.30642 -0.10492,-1.96011 -0.0518,-0.84032 -0.11603,-1.67967 -0.19299,-2.51808 -0.0709,-0.80484 -0.14177,-1.60973 -0.2248,-2.41343 -0.0763,-0.69575 -0.15755,-1.39099 -0.22381,-2.0878 -0.0607,-0.62642 -0.12184,-1.25279 -0.17985,-1.87947 -0.0565,-0.65173 -0.10175,-1.30446 -0.17025,-1.95511 -0.0693,-0.64378 -0.13865,-1.28759 -0.21594,-1.93047 -0.0727,-0.58783 -0.16064,-1.17347 -0.27309,-1.75516 -0.0864,-0.4675 -0.17916,-0.93376 -0.2779,-1.39883 -0.34919,-1.8379 -2.94836,-1.34407 -2.59917,0.49382 z" />
    </g>
    <g
       id="g10858"
       transform="translate(-0.7920092,42.248972)">
      <path
         style="fill:#000000;fill-opacity:1;stroke:none;stroke-width:1.00157;stroke-dasharray:none;stroke-opacity:1"
         id="path10733"
         d="m 768.72398,114.32974 c 0.52511,2.35333 0.88179,4.7403 1.27539,7.11804 0.41253,2.55998 0.92964,5.10093 1.49289,7.63148 0.22823,1.00824 0.45354,2.01933 0.82175,2.98719 0.33513,0.78501 0.73012,1.3626 1.93694,1.11052 0.62065,-0.12964 0.80871,-0.82853 0.9833,-1.3111 0.45975,-1.44905 0.80579,-2.9317 1.13109,-4.41579 0.1995,-0.9558 0.38946,-1.91358 0.58076,-2.87105 0.0449,-0.1872 0.0586,-0.38207 0.11495,-0.56667 -0.22271,0.82417 0.0572,-0.16291 -2.42898,0.26355 -0.062,0.0106 0.0344,0.12106 0.0507,0.18184 0.0388,0.14467 0.0773,0.28944 0.11471,0.43447 0.15724,0.60892 0.17958,0.71008 0.33579,1.34931 0.35907,1.58258 0.68981,3.17063 1.12552,4.73447 0.18116,0.74726 0.46742,1.44447 0.90587,2.07525 0.63928,0.8287 1.34131,0.99296 2.31743,0.35811 0.31119,-0.20239 0.43927,-0.76584 0.54191,-1.09314 0.36545,-1.59991 0.54599,-3.23558 0.75661,-4.86122 0.2501,-1.9133 0.50011,-3.82655 0.78519,-5.735 0.19659,-1.3126 0.39902,-2.62451 0.65126,-3.92771 0.1663,-0.86139 0.43682,-1.69588 0.73742,-2.51827 0.0373,-0.10833 0.0768,-0.2159 0.11176,-0.325 0.0992,-0.31 0.17748,-0.62588 0.26432,-0.9394 0.097,-0.35015 0.0596,-0.20984 0.0364,-0.12168 0.74257,-1.71709 -1.68576,-2.76722 -2.42832,-1.05014 v 0 c -0.19166,0.49914 -0.28659,1.02674 -0.46948,1.52915 -0.34788,0.95445 -0.65719,1.92404 -0.84971,2.92333 -0.25865,1.34028 -0.46892,2.68901 -0.67032,4.03896 -0.28746,1.92539 -0.54013,3.85554 -0.79227,5.78583 -0.19355,1.49396 -0.36272,2.99525 -0.67554,4.47012 -0.0106,0.0518 -0.0772,0.18257 -0.0317,0.15548 0.10797,-0.0644 0.13285,-0.23341 0.24779,-0.28435 0.60076,-0.26626 1.2072,-0.46999 1.66943,0.11195 0.0151,0.019 -0.0325,-0.036 -0.0487,-0.054 -0.28061,-0.36446 -0.38692,-0.81367 -0.51106,-1.24963 -0.42969,-1.53578 -0.747,-3.09767 -1.10375,-4.65133 -0.15742,-0.64374 -0.30617,-1.29219 -0.49043,-1.92905 -0.0381,-0.13165 0.0102,-0.3675 -0.12468,-0.39179 -2.47272,-0.44543 -2.29383,-0.88081 -2.58084,0.0285 -0.0643,0.24399 -0.111,0.49144 -0.15561,0.73969 -0.18811,0.94155 -0.375,1.88337 -0.57077,2.82336 -0.30186,1.37937 -0.62306,2.75703 -1.04313,4.10588 -0.21703,0.65685 0.0405,-0.26588 0.59249,-0.29327 0.49884,-0.0248 0.97006,0.24613 1.43833,0.41982 0.0783,0.029 0.13498,0.29304 0.014,-0.002 -0.33099,-0.84119 -0.49517,-1.73514 -0.70792,-2.61055 -0.55292,-2.48315 -1.06055,-4.97651 -1.46519,-7.48863 -0.40403,-2.4407 -0.77063,-4.89086 -1.31348,-7.30571 -0.43823,-1.81872 -3.01028,-1.19898 -2.57206,0.61974 z" />
      <path
         style="fill:#000000;fill-opacity:1;stroke:none;stroke-width:1.00157;stroke-dasharray:none;stroke-opacity:1"
         id="path10735"
         d="m 783.71192,114.42599 c 0.48183,1.75259 0.87682,3.52784 1.27845,5.30011 0.48416,2.16838 0.90439,4.35022 1.34521,6.52763 0.217,1.13494 0.49463,2.25564 0.82225,3.36324 0.10803,0.43986 0.20252,0.88296 0.3338,1.31671 0.70902,1.05348 0.45359,1.09272 2.45757,0.29639 0.18539,-0.0737 0.16223,-0.36505 0.22727,-0.55364 0.20093,-0.58262 0.30844,-1.21641 0.44834,-1.81484 0.3096,-1.39556 0.62814,-2.78898 1.06277,-4.15157 0.0304,-0.0866 0.12924,-0.40801 0.20642,-0.52861 0.0183,-0.0287 -0.006,0.0757 -0.0334,0.0965 -0.24044,0.18472 -0.45389,0.46632 -0.75413,0.50861 -0.42843,0.0603 -0.79343,-0.13769 -1.14535,-0.31787 0.38396,1.35437 0.67734,2.73103 1.07167,4.08307 0.32675,1.00289 0.66145,2.02499 1.32054,2.86164 0.3695,0.15014 0.71617,0.52222 1.1085,0.45043 1.33457,-0.24423 1.54938,-1.44558 1.79951,-2.47844 0.1828,-0.75484 0.31952,-1.48718 0.47113,-2.24978 0.50729,-2.68831 0.93158,-5.39124 1.41033,-8.08469 0.24728,-1.37325 0.5538,-2.73459 0.83298,-4.10144 -0.0141,-0.30819 0.50278,-1.3577 -0.0668,-0.28104 1.27811,-1.3661 -0.65385,-3.17362 -1.93196,-1.80752 v 0 c -0.11792,0.19576 -0.2508,0.38325 -0.35377,0.58727 -0.14809,0.2934 -0.13114,0.66668 -0.23959,0.97191 -0.28361,1.38895 -0.59524,2.77227 -0.84567,4.16787 -0.47554,2.676 -0.89776,5.36126 -1.40048,8.03235 -0.15407,0.77692 -0.25619,1.33125 -0.4343,2.09028 -0.0509,0.21697 -0.11265,0.43126 -0.16682,0.64744 -0.0215,0.0857 -0.14744,0.27126 -0.0601,0.25813 1.78475,-0.26831 0.22261,-0.79298 1.86544,0.052 0.009,0.0213 0.0409,0.082 0.0266,0.0639 -0.0692,-0.0874 -0.18852,-0.33216 -0.22183,-0.4039 -0.13176,-0.28375 -0.25931,-0.60442 -0.36391,-0.89612 -0.074,-0.20642 -0.14039,-0.4155 -0.21058,-0.62325 -0.4308,-1.4669 -0.70999,-2.97418 -1.1973,-4.42372 -0.42032,-0.72939 -0.51456,-1.23424 -1.67697,-1.21239 -0.96249,0.0181 -1.28875,1.03866 -1.53136,1.73568 -0.45322,1.42914 -0.79612,2.88745 -1.11777,4.35126 -0.10994,0.47061 -0.18256,0.79072 -0.29714,1.24946 -0.0292,0.11708 -0.0823,0.22999 -0.0913,0.35033 -0.002,0.0331 0.0375,-0.0659 0.0703,-0.0704 0.64346,-0.0878 1.29635,-0.30647 1.93761,-0.20376 0.22069,0.0353 0.23484,0.38035 0.35225,0.57053 -0.13452,-0.4227 -0.20377,-0.86319 -0.32555,-1.28941 -0.30581,-1.03321 -0.56468,-2.07857 -0.76614,-3.13759 -0.44489,-2.19738 -0.86901,-4.39923 -1.35803,-6.58741 -0.41411,-1.82706 -0.82143,-3.65723 -1.32095,-5.46329 -0.52887,-1.79445 -3.06662,-1.04651 -2.53774,0.74795 z" />
      <path
         style="fill:#000000;fill-opacity:1;stroke:none;stroke-width:1.00157;stroke-dasharray:none;stroke-opacity:1"
         id="path10737"
         d="m 798.29599,114.54071 c 0.56852,1.75184 0.86903,3.57033 1.12932,5.38848 0.29094,2.42407 0.49642,4.85627 0.84406,7.27342 0.18614,1.29403 0.47497,2.57 0.86257,3.81796 0.17821,0.3697 0.29032,1.0745 0.5732,1.37861 0.17931,0.19277 0.38837,0.35556 0.58255,0.53335 0.5317,-0.0891 1.10195,-0.0493 1.59509,-0.26713 0.21646,-0.0956 0.49211,-0.84758 0.57889,-1.08521 0.23656,-0.64784 0.42634,-1.31145 0.61999,-1.97289 0.37687,-1.31229 0.65047,-2.65056 0.94373,-3.98308 0.21818,-0.90342 0.12363,0.27332 -1.54134,0.5041 -0.4928,0.0683 -0.7155,-0.83593 -0.57732,-0.27591 0.0347,0.14067 0.0717,0.28078 0.1075,0.42117 0.30114,1.34997 0.69484,2.67354 1.21205,3.95606 0.23559,0.4431 0.63147,1.57988 1.09844,1.83978 0.29171,0.16236 0.62441,0.23648 0.93662,0.35472 0.35215,-0.14337 0.75008,-0.20493 1.05646,-0.4301 0.30874,-0.22691 0.57578,-0.9536 0.70199,-1.30605 0.29056,-0.81135 0.50391,-1.64955 0.7261,-2.48116 0.55434,-2.31086 1.16607,-4.60622 1.80988,-6.89356 0.50705,-1.74604 0.96583,-3.50626 1.50446,-5.24302 0.0951,-0.32325 0.2063,-0.63969 0.3407,-0.94832 0.72899,-1.72289 -1.70756,-2.75383 -2.43654,-1.03094 v 0 c -0.16301,0.39204 -0.31429,0.78747 -0.43133,1.19632 -0.54444,1.75904 -1.01196,3.54062 -1.52401,5.30918 -0.647,2.29891 -1.26282,4.60566 -1.81942,6.92834 -0.18515,0.69502 -0.24484,0.94428 -0.44875,1.61682 -0.0612,0.20174 -0.12595,0.4024 -0.19263,0.6024 -0.0397,0.11898 -0.1375,0.22947 -0.1264,0.3544 0.005,0.0583 0.0998,-0.0613 0.14973,-0.0919 0.27422,-0.0749 0.54844,-0.14979 0.82266,-0.22469 0.6891,0.32681 0.59276,0.13225 0.82206,0.48471 0.0247,0.038 -0.0538,-0.0731 -0.0777,-0.11165 -0.18061,-0.29204 -0.32391,-0.60559 -0.46074,-0.91977 -0.47912,-1.1726 -0.82343,-2.38983 -1.10252,-3.62488 -0.14142,-0.53994 -0.39037,-1.90329 -1.14249,-1.95157 -1.56001,-0.10015 -1.77128,0.45349 -1.99134,1.39698 -0.28033,1.27407 -0.54078,2.55387 -0.89921,3.80908 -0.16086,0.55076 -0.21619,0.75588 -0.38929,1.29041 -0.052,0.16042 -0.10671,0.31993 -0.16218,0.47917 -0.0322,0.0923 -0.16237,0.19959 -0.10068,0.27539 0.0532,0.0653 0.12199,-0.11618 0.18298,-0.17428 0.48589,-0.0461 0.97178,-0.0922 1.45767,-0.13828 0.9025,0.91971 0.24259,0.24709 0.12686,-0.36403 -0.34865,-1.11311 -0.60221,-2.25315 -0.7697,-3.40778 -0.34886,-2.41662 -0.54749,-4.84933 -0.84392,-7.27239 -0.28677,-1.98915 -0.62162,-3.97831 -1.25307,-5.89223 -0.62227,-1.76425 -3.11729,-0.88422 -2.49502,0.88002 z" />
      <path
         style="fill:#000000;fill-opacity:1;stroke:none;stroke-width:1.00157;stroke-dasharray:none;stroke-opacity:1"
         id="path10739"
         d="m 819.17018,114.43224 c 0.1078,1.66669 0.16997,3.33546 0.22273,5.00463 0.0708,2.55825 0.20696,5.11396 0.36515,7.66809 0.0998,1.42307 0.2054,2.84656 0.37581,4.26315 0.0422,0.39811 0.11513,0.78561 0.22236,1.17027 0.57465,1.78033 3.09241,0.96764 2.51775,-0.81268 v 0 c -0.007,0.3427 -0.12066,-0.98318 -0.11354,-0.67488 -0.1657,-1.36532 -0.26389,-2.7379 -0.36177,-4.10945 -0.15663,-2.5275 -0.29143,-5.05655 -0.36141,-7.58814 -0.0539,-1.7033 -0.11767,-3.40619 -0.22795,-5.10693 -0.13148,-1.86615 -2.77061,-1.6802 -2.63913,0.18594 z" />
      <path
         style="fill:#000000;fill-opacity:1;stroke:none;stroke-width:1.00157;stroke-dasharray:none;stroke-opacity:1"
         id="path10741"
         d="m 821.4381,116.23615 c 0.22422,-0.29484 0.34509,-0.80549 0.69643,-0.98478 0.43761,-0.18575 0.90321,-0.3005 1.36275,-0.41833 0.5465,-0.15713 1.02603,0.0577 1.53376,0.2503 0.59745,0.23888 1.13645,0.58124 1.4591,1.14822 0.19288,0.44626 0.38053,0.9409 0.35767,1.43763 -0.009,0.18954 -0.096,0.37275 -0.16178,0.54501 -0.49537,0.96589 -1.39587,1.62619 -2.25005,2.2564 -0.62471,0.41938 -1.30098,0.82398 -2.0481,0.97661 -0.0253,0.002 -0.0504,0.006 -0.0758,0.007 -0.17586,7.1e-4 0.49117,-0.10428 0.5231,0.0687 0.44234,2.39585 -0.90862,2.59764 0.2866,2.46099 0.75294,-0.099 1.50465,-0.1359 2.25325,0.002 0.5927,0.13853 1.15585,0.37112 1.65474,0.71976 0.40839,0.30246 0.6316,0.71122 0.78412,1.18306 0.16549,0.50323 0.15181,0.98334 -0.0131,1.47887 -0.24395,0.59144 -0.55452,1.1613 -1.00186,1.62224 -0.53568,0.47842 -1.09795,0.9412 -1.73232,1.28257 -0.74438,0.27267 -1.55423,0.37533 -2.34412,0.38426 -0.0799,-0.0261 -0.15972,-0.0523 -0.23957,-0.0784 -1.83603,-0.3589 -2.34358,2.23763 -0.50756,2.59653 v 0 c 0.27001,0.0423 0.54003,0.0845 0.81005,0.12678 1.21787,-0.0386 2.45848,-0.19336 3.57132,-0.71938 0.87005,-0.49625 1.67438,-1.10297 2.39157,-1.80364 0.69965,-0.78382 1.25107,-1.67649 1.59383,-2.67534 0.28888,-1.06643 0.32256,-2.03733 -0.0341,-3.09691 -0.37009,-1.00319 -0.91595,-1.87679 -1.80792,-2.5001 -0.82214,-0.53696 -1.71473,-0.93775 -2.68353,-1.12887 -0.99871,-0.16038 -1.99842,-0.16375 -3.00151,-0.0212 -0.0179,0.002 -0.72119,0.0787 -0.7274,0.10735 -0.50539,2.33752 -0.7593,2.83553 0.90384,2.56021 1.09284,-0.2698 2.10735,-0.77145 3.02125,-1.42809 1.31434,-0.98043 2.60516,-2.04979 3.20908,-3.62655 0.0677,-0.25436 0.16012,-0.50339 0.20318,-0.76306 0.19933,-1.20198 -0.17371,-2.40084 -0.7388,-3.44913 -0.14107,-0.198 -0.26798,-0.40689 -0.4232,-0.59401 -0.60269,-0.72653 -1.45084,-1.20122 -2.30843,-1.55812 -1.01315,-0.37259 -2.04395,-0.6374 -3.11701,-0.33321 -0.83719,0.21628 -1.69808,0.42802 -2.40352,0.95358 -0.56908,0.51035 -1.00321,1.1148 -1.34732,1.7988 -0.85761,1.66262 1.49369,2.87546 2.35129,1.21285 z" />
      <path
         style="fill:#000000;fill-opacity:1;stroke:none;stroke-width:1.00157;stroke-dasharray:none;stroke-opacity:1"
         id="path10743"
         d="m 830.69859,114.23762 c -0.20309,1.54716 -0.26134,3.10781 -0.31463,4.66575 -0.0535,1.7087 -0.0968,3.41772 -0.0861,5.12733 -0.003,1.25695 0.16453,2.50153 0.39899,3.73336 0.16559,0.95089 0.40364,1.87257 0.82911,2.74032 0.42399,0.7705 1.0495,1.36506 1.79291,1.81914 1.41587,0.60009 2.19567,0.0279 3.05779,-1.05859 0.86237,-1.42058 1.15877,-3.05618 1.35357,-4.68099 0.18207,-1.58249 0.12859,-3.17038 -0.0246,-4.7514 -0.13263,-1.17576 -0.36185,-2.33745 -0.5768,-3.50012 -0.13928,-0.74479 -0.25873,-1.49301 -0.41197,-2.23514 -0.1511,-0.7581 -0.43235,-1.47111 -0.81498,-2.13977 -0.39591,-0.54814 -0.97809,-1.02657 -1.69141,-1.06622 -0.3425,-0.019 -0.68153,0.0787 -1.0223,0.11804 -1.81897,0.43718 -1.2007,3.0096 0.61827,2.57241 v 0 c -0.0144,-0.0114 -0.34453,-0.32261 -0.18059,-0.27544 0.25911,0.40103 0.39309,0.86634 0.50041,1.32794 0.15058,0.72324 0.26332,1.45343 0.40099,2.17915 0.20128,1.08874 0.41704,2.17632 0.54528,3.27676 0.13767,1.39209 0.18877,2.7898 0.0303,4.18384 -0.13493,1.16635 -0.32246,2.33757 -0.84298,3.40397 -0.33003,0.52876 0.0804,0.0253 0.39093,0.35958 -0.32178,-0.15325 -0.56585,-0.43724 -0.76346,-0.72638 -0.33973,-0.63309 -0.44399,-1.34773 -0.59181,-2.04388 -0.20624,-1.07338 -0.35603,-2.1577 -0.35199,-3.25354 -0.011,-1.67386 0.0329,-3.34712 0.0847,-5.0201 0.05,-1.4675 0.10235,-2.93772 0.29147,-4.39534 0.25504,-1.85331 -2.36593,-2.21398 -2.62097,-0.36068 z" />
      <path
         style="fill:#000000;fill-opacity:1;stroke:none;stroke-width:1.00157;stroke-dasharray:none;stroke-opacity:1"
         id="path10745"
         d="m 837.37194,114.73705 c -0.15002,1.95116 -0.10604,3.91176 -0.0836,5.86677 0.0451,2.3399 0.17987,4.67691 0.36296,7.00972 0.1115,1.15671 0.16093,2.3286 0.54847,3.43183 0.14082,0.19577 0.28165,0.39153 0.42247,0.5873 1.30153,1.3438 3.20195,-0.49684 1.90042,-1.84064 v 0 c 0.0485,0.10048 0.0971,0.20096 0.1456,0.30144 -0.13086,-0.23432 -0.1491,-0.54651 -0.18368,-0.80553 -0.0834,-0.62505 -0.13764,-1.25388 -0.19574,-1.8816 -0.17881,-2.27398 -0.31016,-4.55208 -0.35501,-6.83299 -0.0214,-1.85097 -0.0634,-3.70685 0.0687,-5.55472 0.19911,-1.86014 -2.43153,-2.14173 -2.63065,-0.28158 z" />
      <path
         style="fill:#000000;fill-opacity:1;stroke:none;stroke-width:1.00157;stroke-dasharray:none;stroke-opacity:1"
         id="path10747"
         d="m 839.14713,117.01003 c -0.0466,-0.7016 0.30255,-1.24057 0.76434,-1.73068 0.20553,-0.19757 1.24739,-1.15998 1.48261,-0.61699 0.12054,0.88321 -0.17187,1.73911 -0.43972,2.56822 -0.34454,0.81108 -0.9159,2.03094 -1.89013,2.25047 0.90539,-0.25991 0.014,0.043 0.2971,2.60918 0.005,0.0458 0.0904,0.019 0.13429,0.033 0.26864,0.0862 0.3539,0.13553 0.63499,0.26112 1.09731,0.55738 1.51874,1.66478 1.94792,2.74563 0.58296,1.45004 0.85712,3.03692 1.6384,4.40028 1.00178,1.57994 3.23616,0.16321 2.23437,-1.41673 v 0 c -0.19913,-0.11807 -0.0568,-0.0204 -0.24117,-0.52536 -0.41648,-1.14091 -0.75177,-2.30975 -1.1778,-3.44733 -0.76632,-1.87866 -1.46779,-3.24527 -3.35937,-4.18817 -0.52023,-0.21726 -0.65974,-0.30089 -1.19666,-0.43107 -0.13936,-0.0338 -0.3948,-0.2105 -0.42441,-0.0702 -0.58677,2.78003 -0.81757,2.82943 0.46116,2.49928 0.18169,-0.0769 0.37075,-0.13822 0.54506,-0.23061 1.45797,-0.7728 2.35891,-2.19884 2.92247,-3.70356 0.51766,-1.7116 1.07382,-3.76153 -0.33142,-5.24158 -0.21108,-0.22231 -0.48965,-0.36899 -0.73447,-0.55349 -0.28547,-0.0952 -0.55939,-0.23721 -0.8564,-0.28557 -1.4361,-0.23386 -2.69484,0.64655 -3.64599,1.61055 -0.18428,0.22171 -0.38634,0.42978 -0.55285,0.66512 -0.6061,0.85663 -0.89348,1.89377 -0.85439,2.93655 0.0977,1.86822 2.73972,1.73013 2.64207,-0.1381 z" />
      <path
         style="fill:#000000;fill-opacity:1;stroke:none;stroke-width:1.00157;stroke-dasharray:none;stroke-opacity:1"
         id="path10749"
         d="m 852.16424,114.3622 c -0.6008,-0.67344 -1.27351,-1.38567 -2.25252,-1.41403 -0.29499,-0.009 -0.58269,0.094 -0.87404,0.14108 -0.25086,0.14502 -0.53074,0.24866 -0.75258,0.43507 -1.30841,1.09943 -1.74978,3.21131 -2.11458,4.78617 -0.51845,2.50488 -0.48683,5.06711 -0.33908,7.60662 0.14093,1.57422 0.33924,3.22743 1.3,4.54126 0.13324,0.18222 0.29538,0.34143 0.44308,0.51214 0.16752,0.13477 0.30831,0.31216 0.50257,0.40431 1.88875,0.89587 2.90871,-0.56048 3.81472,-1.94448 0.64587,-1.16316 1.1793,-2.44441 1.12112,-3.80134 -0.009,-0.20935 -0.0516,-0.41589 -0.0774,-0.62384 -0.32187,-1.26333 -0.89231,-1.94228 -2.25588,-2.01378 -1.01798,0.1003 -1.63085,0.56228 -1.38788,1.98514 0.1601,0.93764 1.45654,0.81858 2.05271,0.75229 0.4797,-0.103 0.96477,-0.16239 1.45214,-0.21205 1.86045,-0.19626 1.58289,-2.82733 -0.27756,-2.63107 v 0 c -0.52285,0.0566 -1.04517,0.11382 -1.55993,0.22566 -0.0359,0.0121 -0.13073,0.006 -0.1076,0.0364 0.35999,0.46654 0.70408,-1.37207 0.84554,0.72693 0.0487,0.72195 -0.17368,1.81132 -1.03171,1.76233 -0.19221,-0.0839 -0.28421,-0.14436 -0.42679,-0.32081 -0.0972,-0.12025 0.11243,-0.0418 0.08,0.0777 0.19901,0.9192 -0.23799,1.80696 -0.65227,2.60585 -0.10233,0.16353 -0.20465,0.32707 -0.30697,0.4906 -0.0869,0.11777 -0.1817,0.23005 -0.26057,0.35331 -0.0261,0.0408 -0.0913,0.10694 -0.0522,0.13548 0.089,0.065 0.22381,0.0183 0.32441,0.0632 0.0675,0.0301 0.48282,0.33543 0.16295,0.15047 -0.90358,-0.88357 -0.92693,-2.25167 -1.06136,-3.43103 -0.13623,-2.28916 -0.17792,-4.60022 0.27691,-6.86078 0.17862,-0.79101 0.22251,-1.08405 0.47428,-1.83615 0.26399,-0.78858 0.20582,-0.52594 0.49889,-1.17442 0.0892,-0.19748 0.10094,-0.13911 0.0359,-0.25558 -0.10539,-0.0386 -0.22638,-0.0621 -0.29315,-0.16787 -0.01,-0.0152 0.0371,-0.0245 0.0521,-0.0145 0.25375,0.16816 0.4342,0.43786 0.65052,0.64608 1.22774,1.41154 3.22396,-0.32473 1.99623,-1.73628 z" />
      <path
         style="fill:#000000;fill-opacity:1;stroke:none;stroke-width:1.00157;stroke-dasharray:none;stroke-opacity:1"
         id="path10751"
         d="m 854.25143,114.26204 c -0.27648,2.29952 -0.47237,4.60714 -0.65245,6.91585 -0.21821,2.66071 -0.31816,5.32828 -0.40361,7.99584 0.0616,0.95734 -0.17617,1.94175 -0.0708,2.89836 0.0187,0.17022 0.0659,0.33609 0.0989,0.50413 0.54932,1.78831 3.07836,1.01145 2.52904,-0.77685 v 0 c 0.006,0.0797 0.007,0.31835 0.0175,0.23916 0.015,-0.1084 -0.007,-0.21882 -0.005,-0.32823 0.0101,-0.81755 0.0592,-1.63447 0.0749,-2.45187 0.0841,-2.62719 0.18189,-5.25442 0.39696,-7.87486 0.17642,-2.26306 0.36811,-4.52505 0.63822,-6.77921 0.24205,-1.85505 -2.38138,-2.19737 -2.62343,-0.34232 z" />
      <path
         style="fill:#000000;fill-opacity:1;stroke:none;stroke-width:1.00157;stroke-dasharray:none;stroke-opacity:1"
         id="path10753"
         d="m 855.4298,116.29264 c 0.42351,-0.57578 0.98512,-1.02436 1.6366,-1.31122 0.53115,-0.0713 1.24693,-0.127 1.6564,0.2882 0.22065,0.78264 -0.0181,1.60052 -0.22883,2.35623 -0.39266,1.22846 -1.15503,1.92158 -2.25567,2.50816 -1.32351,0.58809 -1.11026,-0.0146 0.23196,2.76635 0.0413,0.0857 0.18693,-0.0355 0.28098,-0.0497 0.12577,-0.019 0.25221,-0.0332 0.37832,-0.0498 0.72993,-0.0861 1.26546,-0.016 1.84675,0.43388 0.51416,0.54165 0.80675,1.22075 1.01466,1.92676 0.20651,0.74743 0.15729,1.46365 -0.0733,2.19268 -0.24214,0.65867 -0.56159,1.28458 -1.04692,1.79539 -0.65733,0.51209 -1.42187,0.90487 -2.2543,1.00236 -0.3643,-0.0158 -0.72365,-0.0805 -1.03773,-0.27033 -1.68595,-0.81077 -2.83256,1.57352 -1.14661,2.3843 v 0 c 0.83543,0.37358 1.6824,0.58953 2.61018,0.49721 0.25732,-0.0476 0.51866,-0.077 0.77195,-0.14269 1.12733,-0.29255 2.16521,-0.92907 3.02285,-1.7008 0.72589,-0.82867 1.27608,-1.76638 1.6187,-2.81878 0.3631,-1.2887 0.42537,-2.41225 0.0647,-3.71472 -0.40098,-1.27565 -0.99247,-2.46747 -2.04746,-3.33299 -0.19225,-0.12544 -0.3753,-0.26627 -0.57676,-0.37631 -0.9632,-0.52613 -2.04847,-0.61798 -3.1217,-0.4977 -0.16604,0.023 -0.3326,0.0424 -0.49812,0.0688 -0.13551,0.0217 -0.41048,-0.0617 -0.40472,0.0754 0.12993,3.09379 0.0786,2.82879 1.64033,2.12959 1.81292,-1.0152 2.87865,-2.13318 3.53983,-4.15119 0.39267,-1.54488 0.72965,-3.24817 -0.29484,-4.64862 -0.16181,-0.22118 -0.38224,-0.39282 -0.57337,-0.58922 -0.21505,-0.12902 -0.41826,-0.28025 -0.64517,-0.38705 -1.13322,-0.53336 -2.46075,-0.45875 -3.61939,-0.0793 -1.16285,0.584 -2.05592,1.27081 -2.77879,2.36935 -0.9375,1.61892 1.35199,2.94474 2.28949,1.32583 z" />
      <path
         style="fill:#000000;fill-opacity:1;stroke:none;stroke-width:1.00157;stroke-dasharray:none;stroke-opacity:1"
         id="path10755"
         d="m 864.40488,132.10844 c 0.56483,-1.85589 1.07779,-3.72584 1.5247,-5.61348 0.43423,-2.00513 0.81895,-4.01953 1.30239,-6.01373 0.34448,-1.32255 0.64181,-2.65648 0.95967,-3.98545 0.15945,-0.66911 0.44163,-1.29855 0.7541,-1.90829 -0.30235,0.30433 0.18929,-0.28108 0.12808,-0.22163 -0.14004,0.13604 -0.23276,0.3385 -0.41169,0.41662 -0.52714,0.23018 -0.88611,0.21086 -1.30891,-0.0687 -0.0584,0.0475 -0.0278,0.0132 -0.004,0.16807 0.1509,0.97349 0.24897,1.94297 0.32752,2.9254 0.16198,2.22356 0.14772,4.45411 0.14593,6.68196 0.004,1.86776 6.9e-4,3.73552 -0.006,5.60327 0.003,0.15772 0.006,0.31544 0.009,0.47316 0.035,1.87044 2.68025,1.82088 2.64521,-0.0496 v 0 c -0.003,-0.13814 -0.005,-0.27629 -0.008,-0.41443 0.006,-1.8701 0.01,-3.74021 0.006,-5.61032 0.002,-2.29918 0.0147,-4.6011 -0.15441,-6.89573 -0.0998,-1.23922 -0.1413,-2.99043 -0.65787,-4.13139 -0.0717,-0.15843 -0.18113,-0.29696 -0.27169,-0.44544 -0.24828,-0.25651 -0.51463,-0.60506 -0.90929,-0.65713 -1.00259,-0.13227 -1.48083,0.21064 -1.88633,1.02366 -0.40522,0.79723 -0.76368,1.62188 -0.97049,2.49528 -0.31704,1.32647 -0.61414,2.65776 -0.95783,3.97779 -0.48393,1.99905 -0.87376,4.01728 -1.30576,6.02783 -0.428,1.81254 -0.92223,3.60712 -1.46132,5.38983 -0.58863,1.77576 1.92267,2.6082 2.51129,0.83244 z" />
      <path
         style="fill:#000000;fill-opacity:1;stroke:none;stroke-width:1.00157;stroke-dasharray:none;stroke-opacity:1"
         id="path10757"
         d="m 866.44708,126.63316 c 0.91619,-0.34113 1.85416,-0.60588 2.81606,-0.77698 1.8401,-0.33735 1.36301,-2.93965 -0.47709,-2.60229 v 0 c -1.109,0.20798 -2.19661,0.49748 -3.25366,0.89675 -1.75541,0.64677 -0.84072,3.1293 0.91469,2.48252 z" />
      <path
         style="fill:#000000;fill-opacity:1;stroke:none;stroke-width:1.00157;stroke-dasharray:none;stroke-opacity:1"
         id="path10759"
         d="m 879.70598,115.09749 c 0.0734,-1.01463 -0.21646,-2.09481 -1.05196,-2.75194 -0.20506,-0.16129 -0.44955,-0.26489 -0.67432,-0.39734 -0.29795,-0.0486 -0.59215,-0.15629 -0.89385,-0.14566 -1.55944,0.0549 -2.49558,1.48483 -3.21238,2.66788 -0.55024,1.16476 -1.17167,2.37987 -1.33831,3.67775 -0.0279,0.21736 -0.0233,0.43767 -0.035,0.6565 0.099,1.30653 0.75459,1.96041 1.86205,2.53068 0.53526,0.26143 1.06245,0.53538 1.50697,0.9359 0.52007,0.55811 0.73054,1.28649 0.91065,2.00851 0.21456,0.97202 0.37037,1.95486 0.35469,2.95153 -0.0738,0.94681 -0.35175,1.87696 -0.98912,2.59541 -0.40283,-0.18747 -1.04962,-0.069 -1.37641,-0.40194 -0.0291,-0.0296 0.031,-0.077 0.0464,-0.11546 0.0624,-0.01 0.1248,-0.0191 0.1872,-0.0286 -0.39413,-1.82878 -2.98042,-1.27141 -2.58629,0.55738 v 0 c 0.15649,0.42708 0.31299,0.85417 0.46948,1.28125 0.28325,0.24697 0.53324,0.53833 0.84975,0.74092 0.8917,0.57077 2.64777,0.65298 3.59644,0.22731 0.32437,-0.14555 0.58512,-0.40404 0.87768,-0.60605 0.16324,-0.21341 0.34317,-0.41502 0.48972,-0.64022 0.69355,-1.06579 0.996,-2.33823 1.08073,-3.59112 0.001,-1.22537 -0.1563,-2.43612 -0.43805,-3.62955 -0.32814,-1.24847 -0.78241,-2.45173 -1.74831,-3.35568 -0.62149,-0.52146 -1.29895,-0.94886 -2.03636,-1.28989 -0.10612,-0.0522 -0.20159,-0.14644 -0.3196,-0.15392 -3.4e-4,-3e-5 -0.007,0.12724 -0.0491,0.10448 -0.0215,-0.0117 -0.029,-0.0393 -0.0436,-0.059 -0.0692,-0.94928 0.64312,-2.18947 1.00185,-3.04311 0.28406,-0.48994 0.26769,-0.4971 0.58993,-0.9272 0.0665,-0.0887 0.13998,-0.17188 0.21047,-0.25741 0.0343,-0.0417 0.0965,-0.0707 0.10396,-0.12415 0.0131,-0.0943 -0.28902,-0.0739 -0.21938,-0.1828 -0.0337,-0.27584 0.37022,0.25914 0.2561,0.3835 -0.27014,1.85117 2.3478,2.2332 2.61794,0.38204 z" />
      <path
         style="fill:#000000;fill-opacity:1;stroke:none;stroke-width:1.00157;stroke-dasharray:none;stroke-opacity:1"
         id="path10761"
         d="m 881.11641,113.95117 c -0.3436,2.11112 -0.50919,4.2454 -0.67019,6.37649 -0.15762,2.45976 -0.31688,4.92263 -0.30412,7.38849 0.006,1.00342 0.15916,1.99207 0.55702,2.91479 0.30832,0.6987 0.90222,1.05218 1.59615,1.28416 1.19174,0.20997 2.39308,-0.19504 3.55229,-0.44698 0.60406,-0.11266 1.19713,-0.28807 1.8037,-0.38842 0.32633,-0.054 0.32973,-0.0658 0.21863,0.005 1.8585,0.21388 2.16097,-2.41445 0.30247,-2.62832 v 0 c -0.18424,-0.01 -0.3683,-0.0352 -0.55271,-0.0296 -0.79306,0.0243 -1.55512,0.34392 -2.33399,0.45642 -0.7415,0.16117 -1.50652,0.29515 -2.23332,0.49725 -0.1307,0.0127 0.1765,0.27013 0.0618,0.17058 -0.282,-0.56859 -0.29547,-1.23001 -0.32645,-1.84989 -0.0156,-2.39424 0.14734,-4.7856 0.29666,-7.17397 0.15474,-2.05213 0.31234,-4.10754 0.64169,-6.14066 0.30756,-1.84532 -2.30212,-2.28026 -2.60967,-0.43495 z" />
      <path
         style="fill:#000000;fill-opacity:1;stroke:none;stroke-width:1.00157;stroke-dasharray:none;stroke-opacity:1"
         id="path10763"
         d="m 883.67241,123.90283 c 0.7238,-0.40386 1.51174,-0.66406 2.29734,-0.91613 1.77994,-0.57586 0.96555,-3.09307 -0.81438,-2.51721 v 0 c -0.97315,0.31702 -1.94706,0.64855 -2.83858,1.16137 -1.60653,0.95857 -0.25091,3.23054 1.35562,2.27197 z" />
      <path
         style="fill:#000000;fill-opacity:1;stroke:none;stroke-width:1.00157;stroke-dasharray:none;stroke-opacity:1"
         id="path10765"
         d="m 883.08407,114.79123 c 1.26008,-0.20488 2.52006,-0.40924 3.79455,-0.49203 1.86639,-0.12791 1.68549,-2.76739 -0.1809,-2.63948 v 0 c -1.40107,0.10015 -2.78941,0.30638 -4.17339,0.54573 -1.82843,0.3958 -1.26868,2.98158 0.55974,2.58578 z" />
      <path
         style="fill:#000000;fill-opacity:1;stroke:none;stroke-width:1.00157;stroke-dasharray:none;stroke-opacity:1"
         id="path10767"
         d="m 902.50398,114.22839 c -0.10797,-0.81016 -0.40282,-1.66969 -1.068,-2.19842 -0.17604,-0.13992 -0.38431,-0.2336 -0.57646,-0.3504 -0.24911,-0.0547 -0.49234,-0.15892 -0.74732,-0.16397 -1.01862,-0.0202 -1.99786,0.61567 -2.69213,1.30616 -0.2012,0.2001 -0.37604,0.42508 -0.56405,0.63761 -1.16748,1.52107 -1.75832,3.33519 -2.20471,5.17324 -0.38942,1.74246 -0.47004,3.52384 -0.36257,5.29998 0.11898,1.41108 0.46276,2.78948 0.86015,4.14446 0.32981,1.14372 0.95783,2.11327 1.78902,2.94977 0.63026,0.59358 1.42101,0.98212 2.3073,0.9206 0.21512,-0.0149 0.42512,-0.0726 0.63768,-0.10894 1.10688,-0.38488 1.86815,-1.23575 2.63289,-2.07689 1.25354,-1.38867 -0.71034,-3.16145 -1.96388,-1.77278 v 0 c -0.39374,0.44014 -0.7993,0.86552 -1.23247,1.2647 -0.25589,0.14802 -0.27062,0.10725 -0.52209,-0.10873 -0.52911,-0.50558 -0.9051,-1.10552 -1.11037,-1.81452 -0.34407,-1.16509 -0.64541,-2.35023 -0.75774,-3.56306 -0.0986,-1.51249 -0.0291,-3.03006 0.29431,-4.51556 0.34082,-1.43156 0.77053,-2.85817 1.6399,-4.06895 0.28022,-0.34415 0.28373,-0.38415 0.60785,-0.6562 0.0866,-0.0727 0.1804,-0.13663 0.2726,-0.20219 0.0565,-0.0402 0.14586,-0.0512 0.17329,-0.11489 0.0376,-0.0874 -0.32998,-0.0545 -0.23564,-0.16089 -0.20477,-0.31539 0.26071,0.20808 0.18562,0.39602 0.15284,1.86452 2.78967,1.64836 2.63682,-0.21615 z" />
      <path
         style="fill:#000000;fill-opacity:1;stroke:none;stroke-width:1.00157;stroke-dasharray:none;stroke-opacity:1"
         id="path10769"
         d="m 904.1522,114.17776 c -0.38215,1.44169 -0.55528,2.9261 -0.72471,4.40441 -0.21794,2.02747 -0.41515,4.05685 -0.54419,6.09202 -0.10416,1.41639 -0.0276,2.82734 0.18811,4.22814 0.15783,1.08711 0.49218,2.0027 1.20863,2.83935 0.80778,0.78236 1.93014,0.88918 2.88,0.26452 0.21928,-0.14421 0.4029,-0.33642 0.60435,-0.50464 1.05474,-1.08687 1.72654,-2.44379 2.32906,-3.81462 0.59814,-1.37806 0.91617,-2.84621 1.20073,-4.31399 0.26573,-1.38353 0.34466,-2.78709 0.31689,-4.19251 -0.0333,-1.15906 -0.21871,-2.30079 -0.50395,-3.42222 -0.23857,-0.94468 -0.59751,-1.7816 -1.18657,-2.55804 -0.67459,-0.60446 -1.467,-0.87318 -2.37517,-0.80327 -0.31677,0.0244 -0.62427,0.11853 -0.9364,0.1778 -1.82341,0.41827 -1.23188,2.99697 0.59153,2.57869 v 0 c 0.10742,-0.037 0.21176,-0.0846 0.32227,-0.11092 0.15895,-0.0379 0.39898,0.04 0.33974,-0.17975 0.41024,0.39283 0.49299,1.04368 0.68189,1.55283 0.23946,0.92375 0.39054,1.86503 0.42158,2.8206 0.0275,1.21825 -0.0406,2.43455 -0.26931,3.63421 -0.24635,1.27593 -0.51105,2.55544 -1.02671,3.75531 -0.44974,1.03145 -0.93385,2.06209 -1.68271,2.91594 -0.28489,0.35186 -0.0778,0.15534 0.19593,0.33317 0.13073,0.0849 0.10739,0.08 0.0526,0.0852 -0.42215,-0.32454 -0.42415,-1.00112 -0.55018,-1.46439 -0.19067,-1.21059 -0.25241,-2.42962 -0.16193,-3.6543 0.12569,-1.99059 0.31986,-3.97537 0.53233,-5.95845 0.15337,-1.34392 0.30539,-2.69424 0.64784,-4.00605 0.49426,-1.8043 -2.0574,-2.50329 -2.55166,-0.699 z" />
      <path
         style="fill:#000000;fill-opacity:1;stroke:none;stroke-width:1.00157;stroke-dasharray:none;stroke-opacity:1"
         id="path10771"
         d="m 912.75365,113.77218 c -0.24832,1.84729 -0.4561,3.69992 -0.68387,5.54989 -0.33287,2.73125 -0.65557,5.46379 -0.95895,8.19848 -0.12774,1.11786 -0.28256,2.2327 -0.17445,3.35739 0.14567,0.73926 -0.008,0.24682 0.87558,1.27613 1.70016,0.78053 2.80401,-1.62386 1.10384,-2.40439 v 0 c 0.67203,0.88475 0.87022,1.18371 0.65219,0.85591 -0.10942,-0.93336 0.10301,-1.86457 0.17238,-2.79335 0.30216,-2.72415 0.62371,-5.44615 0.95526,-8.16687 0.22458,-1.82415 0.43026,-3.6508 0.67318,-5.47255 0.2833,-1.8492 -2.33186,-2.24984 -2.61516,-0.40064 z" />
      <path
         style="fill:#000000;fill-opacity:1;stroke:none;stroke-width:1.00157;stroke-dasharray:none;stroke-opacity:1"
         id="path10773"
         d="m 914.07909,115.11247 c 0.43315,1.76777 0.63908,3.58114 0.88254,5.38208 0.18395,0.75953 0.1125,1.59259 0.34195,2.34359 0.0555,0.18179 0.046,0.43393 0.20994,0.53021 0.52439,0.30803 1.14768,0.40289 1.72153,0.60433 0.29448,-0.26212 0.62216,-0.49115 0.88346,-0.78637 0.15946,-0.18016 0.69578,-1.23114 0.7835,-1.40938 0.44218,-0.89855 0.8342,-1.82237 1.2401,-2.73757 0.47837,-1.07101 0.93302,-2.15147 1.50535,-3.17653 0.17527,-0.29271 0.33559,-0.59525 0.51368,-0.88592 -0.7484,-0.0138 -1.4968,-0.0275 -2.2452,-0.0413 -0.0361,-0.0824 -0.0427,-0.18585 -0.10843,-0.24737 -0.0359,-0.0336 0.002,0.0984 0.002,0.14761 2.4e-4,0.11349 10e-4,0.227 -8.2e-4,0.34048 -0.008,0.46607 -0.0177,0.59712 -0.0403,1.08605 -0.0907,1.66955 -0.29494,3.32999 -0.46812,4.99227 -0.19197,1.91545 -0.25688,3.83975 -0.29342,5.76339 -0.0208,1.42161 -0.007,2.84361 0.0449,4.26439 0.002,0.0953 0.004,0.19056 0.006,0.28584 0.0419,1.8703 2.68693,1.81101 2.64501,-0.0593 v 0 c -0.002,-0.10791 -0.005,-0.21582 -0.007,-0.32373 -0.0507,-1.37171 -0.0632,-2.74462 -0.0436,-4.11713 0.0349,-1.84881 0.096,-3.69832 0.27965,-5.53934 0.17846,-1.71316 0.38839,-3.42449 0.47959,-5.14531 0.0277,-0.6095 0.12799,-1.45814 0.0169,-2.05944 -0.0371,-0.201 0.0383,-0.53073 -0.15646,-0.59289 -0.7414,-0.23671 -1.55082,-0.13318 -2.32624,-0.19977 -0.21641,0.34012 -0.40152,0.69939 -0.60949,1.04466 -0.60866,1.09622 -1.10605,2.24447 -1.61217,3.3907 -0.38457,0.86712 -0.75614,1.74218 -1.17177,2.59512 -0.10453,0.21453 -0.21492,0.4262 -0.32722,0.63676 -0.0748,0.14026 -0.32497,0.28516 -0.234,0.41551 0.0847,0.12137 0.27758,-0.1028 0.41637,-0.1542 0.48529,0.23063 0.99512,0.41548 1.45589,0.69188 0.0604,0.0362 0.0525,0.27673 0.0426,0.20699 -0.10569,-0.73918 -0.2445,-1.47505 -0.32202,-2.21868 -0.25912,-1.91675 -0.48124,-3.84645 -0.95243,-5.72568 -0.49358,-1.80448 -3.04551,-1.10645 -2.55193,0.69803 z" />
      <circle
         style="fill:#000000;fill-opacity:1;stroke:none;stroke-width:1.00157;stroke-dasharray:none;stroke-opacity:1"
         id="path10827"
         cx="814.43634"
         cy="131.5981"
         r="1.5487876" />
      <circle
         style="fill:#000000;fill-opacity:1;stroke:none;stroke-width:1.00157;stroke-dasharray:none;stroke-opacity:1"
         id="path10833"
         cx="892.22235"
         cy="130.66515"
         r="1.5393925" />
    </g>
    <g
       id="g10957"
       transform="translate(-122.88082,-77.459111)">
      <path
         style="fill:#000000;fill-opacity:1;stroke:none;stroke-width:1.00157;stroke-dasharray:none;stroke-opacity:1"
         id="path10928"
         d="m 943.22487,142.08306 c 0.005,1.50312 -0.013,3.00615 -0.026,4.50918 0.005,1.24692 -0.0509,2.49261 -0.0915,3.73852 -0.0535,1.21177 0.005,2.42363 0.05,3.63449 0.0397,1.25508 0.0525,2.51064 0.0886,3.76581 0.037,1.12828 0.0508,2.25708 0.0588,3.38587 0.006,1.22748 0.005,2.45498 0.005,3.68247 0.0131,1.13076 -0.0154,2.26095 -0.0444,3.39118 -0.0276,1.01147 -0.0341,2.02332 -0.0388,3.0351 -0.003,1.02433 -0.003,2.04866 -0.003,3.07299 0.0145,1.03045 0.0811,2.0593 0.13476,3.08825 0.0512,0.93225 0.12559,1.86293 0.16798,2.79566 0.0194,0.86954 0.11341,1.73459 0.14915,2.60316 0.004,0.86876 -0.0602,1.73637 -0.10665,2.60356 -0.0329,0.9687 -0.15595,1.93061 -0.24998,2.89438 -0.0943,0.97822 -0.10629,1.96145 -0.16497,2.94184 -0.0552,0.88765 -0.15578,1.77128 -0.23971,2.65637 -0.0764,0.84707 -0.18887,1.68978 -0.31395,2.53081 -0.15014,0.94578 -0.27715,1.89477 -0.35827,2.84897 -0.0716,0.9603 -0.0814,1.92358 -0.0878,2.88605 0.009,0.93886 -0.0116,1.87696 -0.0389,2.81531 -0.0285,0.9712 -0.0383,1.94279 -0.044,2.91435 0.0218,0.956 0.10617,1.91134 0.21921,2.86072 0.0876,0.70897 0.24879,1.40588 0.34904,2.11277 0.0857,0.68156 0.10152,1.36841 0.11151,2.05435 0.007,0.66871 0.006,1.33747 0.005,2.00621 0.008,0.13681 0.0169,0.27363 0.0254,0.41044 0.20133,2.66761 3.97391,2.38289 3.77258,-0.28472 v 0 c -0.005,-0.04 -0.01,-0.08 -0.0146,-0.11998 0.001,-0.68944 0.002,-1.3789 -0.006,-2.06831 -0.0129,-0.84914 -0.0379,-1.6993 -0.15044,-2.54223 -0.10013,-0.67722 -0.24168,-1.34711 -0.33733,-2.02502 -0.0988,-0.79 -0.1617,-1.58671 -0.19163,-2.38211 0.005,-0.94228 0.0148,-1.88458 0.0424,-2.82652 0.0281,-0.96673 0.0494,-1.93328 0.0404,-2.90053 0.006,-0.86546 0.0128,-1.73166 0.0747,-2.59533 0.0717,-0.87389 0.19494,-1.74205 0.33032,-2.6082 0.13482,-0.90751 0.25548,-1.81695 0.33827,-2.7309 0.0876,-0.92962 0.19362,-1.85765 0.24996,-2.79003 0.0542,-0.93253 0.0695,-1.86735 0.15375,-2.79805 0.0987,-1.01846 0.22784,-2.03493 0.26235,-3.05856 0.0529,-0.98832 0.12648,-1.97735 0.10858,-2.96763 -0.0386,-0.87224 -0.12667,-1.74112 -0.14965,-2.61423 -0.0434,-0.94067 -0.11589,-1.87941 -0.16914,-2.81951 -0.0502,-0.96357 -0.11239,-1.92703 -0.12963,-2.89188 -1.5e-4,-1.01823 -6.8e-4,-2.03646 0.002,-3.05468 0.005,-0.98533 0.0107,-1.97073 0.0376,-2.95576 0.0299,-1.16253 0.0587,-2.32505 0.0457,-3.48811 6e-5,-1.23656 7.9e-4,-2.47313 -0.005,-3.70968 -0.008,-1.15602 -0.0225,-2.31205 -0.0603,-3.46755 -0.0364,-1.26547 -0.0488,-2.53134 -0.0896,-3.7967 -0.0415,-1.12336 -0.0993,-2.24767 -0.0494,-3.37191 0.0414,-1.276 0.0977,-2.55178 0.0933,-3.82881 0.0131,-1.51392 0.0312,-3.02785 0.0261,-4.54187 0,-2.6752 -3.7833,-2.6752 -3.7833,0 z" />
      <path
         style="fill:#000000;fill-opacity:1;stroke:none;stroke-width:1.00157;stroke-dasharray:none;stroke-opacity:1"
         id="path10930"
         d="m 980.14597,142.74575 c 0.0755,1.71897 0.1062,3.43951 0.12926,5.15985 0.0277,1.59615 0.0147,3.19214 -0.0109,4.78816 -0.0433,1.71026 -0.0317,3.42057 0.007,5.13068 0.0464,1.40937 0.0635,2.81766 -0.008,4.22614 -0.11363,1.51808 -0.22948,3.03567 -0.30639,4.55613 -0.0833,1.53478 -0.0698,3.07144 -0.0312,4.60716 0.0352,1.24218 0.0533,2.48464 0.0888,3.72681 0.0517,1.1202 0.10589,2.24012 0.13236,3.36125 0.0197,1.04068 0.02,2.0816 0.021,3.12243 1.8e-4,1.23025 -4.6e-4,2.46049 -7.1e-4,3.69074 -0.006,1.59453 0.004,3.18894 0.0193,4.78337 0.0449,1.38323 0.0534,2.76619 0.0173,4.14954 -0.0593,1.42627 -0.17375,2.84946 -0.25863,4.27433 -0.0689,1.32336 -0.11503,2.64782 -0.14228,3.97267 -0.0202,1.17515 -0.0212,2.35052 -0.0223,3.52581 -0.0162,1.06748 0.21596,2.11098 0.39847,3.15594 0.14146,0.78745 0.33838,1.56132 0.42122,2.35791 0.0583,0.87083 0.1765,1.73603 0.25894,2.60461 0.0498,0.61688 0.0293,1.23576 0.016,1.85356 -0.0502,0.55969 0.01,1.08236 0.10623,1.63385 0.73174,2.57318 4.37077,1.53834 3.63902,-1.03484 v 0 c 0.0693,0.89923 7e-4,-0.3539 0.0372,-0.51736 0.0165,-0.76505 0.0356,-1.53142 -0.0322,-2.29489 -0.085,-0.88563 -0.20277,-1.76809 -0.26419,-2.65596 -0.099,-0.87672 -0.28343,-1.7344 -0.45546,-2.59902 -0.14518,-0.82822 -0.34381,-1.65453 -0.34185,-2.50009 0.001,-1.15068 0.002,-2.30143 0.0215,-3.45198 0.0261,-1.27573 0.0707,-2.55109 0.13639,-3.82543 0.0872,-1.46709 0.20636,-2.93242 0.26405,-4.40113 0.0368,-1.42831 0.0307,-2.85633 -0.0163,-4.2845 -0.0155,-1.58185 -0.0256,-3.16367 -0.0191,-4.74561 2.6e-4,-1.23171 9e-4,-2.46342 7.1e-4,-3.69512 -10e-4,-1.06959 -10e-4,-2.13928 -0.0221,-3.20871 -0.0269,-1.12717 -0.0793,-2.25324 -0.13284,-3.37942 -0.0354,-1.23792 -0.0532,-2.47614 -0.0884,-3.71407 -0.0364,-1.44041 -0.0509,-2.88169 0.0276,-4.32125 0.0765,-1.52102 0.19564,-3.03888 0.30647,-4.55769 0.0737,-1.5002 0.0639,-3.0001 0.0122,-4.50119 -0.0378,-1.66122 -0.0492,-3.32261 -0.007,-4.98397 0.0262,-1.63317 0.0392,-3.26633 0.011,-4.89963 -0.0237,-1.76428 -0.0555,-3.52875 -0.13333,-5.29161 -0.12907,-2.67208 -3.90797,-2.48956 -3.7789,0.18253 z" />
      <path
         style="fill:#000000;fill-opacity:1;stroke:none;stroke-width:1.00157;stroke-dasharray:none;stroke-opacity:1"
         id="path10932"
         d="m 945.20855,219.40672 c 1.76301,0.13495 3.52866,0.1964 5.2965,0.19678 2.25429,-0.0681 4.50505,-0.21431 6.75893,-0.29609 2.00389,-0.039 4.00392,-0.16669 6.00447,-0.27993 1.68724,-0.0827 3.37713,-0.089 5.06603,-0.0979 1.66168,-0.0244 3.32245,0.0374 4.98304,0.0866 1.5343,0.0164 3.06611,0.0729 4.59749,0.16649 1.20644,0.0658 2.41307,0.13352 3.62028,0.18384 0.18669,-2.5e-4 0.37338,-4.9e-4 0.56007,-7.4e-4 2.67517,-0.0132 2.65652,-3.79645 -0.0186,-3.78326 v 0 c -0.12832,10e-4 -0.25664,0.003 -0.38496,0.004 -1.18251,-0.0486 -2.36437,-0.11624 -3.54612,-0.18004 -1.57086,-0.0958 -3.14225,-0.15505 -4.7161,-0.17187 -1.70458,-0.0505 -3.40935,-0.11295 -5.11504,-0.0882 -1.75356,0.009 -3.50812,0.0167 -5.2599,0.10395 -1.97507,0.11184 -3.9496,0.23835 -5.928,0.27638 -2.20845,0.0804 -4.41398,0.21963 -6.62257,0.29359 -1.69049,10e-4 -3.37866,-0.061 -5.0645,-0.18972 -2.67022,-0.16332 -2.90119,3.61293 -0.23097,3.77625 z" />
      <path
         style="fill:#000000;fill-opacity:1;stroke:none;stroke-width:1.00157;stroke-dasharray:none;stroke-opacity:1"
         id="path10934"
         d="m 944.72172,143.74328 c 1.63337,0.31135 3.27936,0.55084 4.93162,0.73499 1.50995,0.14702 3.0245,0.23746 4.5385,0.33026 1.90423,0.11081 3.8107,0.17734 5.71709,0.23789 2.01562,0.0722 4.03083,0.14999 6.04755,0.18321 1.84971,0.0491 3.69539,-0.068 5.5362,-0.23475 1.48109,-0.14609 2.95984,-0.3143 4.4408,-0.46162 1.3961,-0.14609 2.7837,-0.35938 4.16884,-0.58446 0.63665,-0.0447 1.28031,-0.28034 1.92397,-0.23723 0.0421,0.003 -0.0826,0.0172 -0.12394,0.0258 2.63666,0.45249 3.27659,-3.2763 0.63993,-3.7288 v 0 c -1.03018,-0.10875 -2.02968,0.0151 -3.04691,0.20594 -1.30802,0.21266 -2.61821,0.41514 -3.93649,0.55404 -1.47009,0.14632 -2.93806,0.31273 -4.40821,0.45852 -1.70648,0.15528 -3.41734,0.26674 -5.13223,0.21977 -1.99737,-0.0325 -3.9932,-0.11085 -5.98949,-0.18181 -1.86923,-0.0593 -3.73855,-0.12439 -5.60568,-0.23271 -1.45193,-0.089 -2.90437,-0.17545 -4.35261,-0.31426 -1.5404,-0.17016 -3.07453,-0.3951 -4.59758,-0.68271 -2.62192,-0.5313 -3.37328,3.17665 -0.75136,3.70794 z" />
      <path
         style="fill:#000000;fill-opacity:1;stroke:none;stroke-width:1.00157;stroke-dasharray:none;stroke-opacity:1"
         id="path10936"
         d="m 945.19498,142.58858 c 1.62472,-0.76189 3.22278,-1.57967 4.79556,-2.44331 1.41626,-0.79921 2.83963,-1.58636 4.28316,-2.33536 1.25558,-0.64038 2.49954,-1.30316 3.77112,-1.91152 1.69426,-0.76776 3.42225,-1.45864 5.14703,-2.15425 1.6742,-0.65075 3.32962,-1.34635 4.97428,-2.06801 1.46187,-0.62688 2.88123,-1.34492 4.28842,-2.08474 1.43937,-0.76015 2.85545,-1.56317 4.28644,-2.33881 1.17187,-0.6377 2.33777,-1.28901 3.54582,-1.85663 -0.0463,0.0291 -0.0926,0.0581 -0.13889,0.0872 2.62719,-0.50455 1.91365,-4.21996 -0.71354,-3.71541 v 0 c -0.25415,0.069 -0.5083,0.13794 -0.76244,0.20691 -1.26985,0.60157 -2.50249,1.27645 -3.7341,1.952 -1.41696,0.76834 -2.81963,1.56289 -4.24459,2.31646 -1.32792,0.69892 -2.66732,1.37734 -4.04737,1.96864 -1.60981,0.70647 -3.23028,1.38705 -4.86915,2.02375 -1.79902,0.7256 -3.60146,1.44626 -5.36686,2.25114 -1.30722,0.62735 -2.58874,1.30508 -3.87939,1.96554 -1.46977,0.76345 -2.9204,1.56309 -4.36238,2.37769 -1.50227,0.82671 -3.03065,1.60605 -4.58285,2.33498 -2.42097,1.13825 -0.81123,4.56202 1.60973,3.42377 z" />
      <path
         style="fill:#000000;fill-opacity:1;stroke:none;stroke-width:1.00157;stroke-dasharray:none;stroke-opacity:1"
         id="path10938"
         d="m 981.0383,143.19872 c 2.23879,-0.75516 4.28581,-1.93953 6.29299,-3.16456 2.03477,-1.31825 4.09115,-2.60014 6.18442,-3.82338 1.44602,-0.84002 2.92753,-1.61541 4.40912,-2.38998 1.05016,-0.58021 2.08497,-1.1879 3.12687,-1.7829 1.0156,-0.58962 2.0182,-1.20145 3.0143,-1.82333 1.0443,-0.66492 2.0716,-1.35633 3.0963,-2.0509 0.744,-0.53948 1.4763,-1.09484 2.216,-1.64043 0.4737,-0.31458 0.9229,-0.66313 1.3793,-1.00173 0.156,-0.10044 0.083,-0.0558 0.2176,-0.13531 2.2831,-1.39431 0.3113,-4.62312 -1.9719,-3.22882 v 0 c -0.3149,0.19488 -0.1476,0.0872 -0.5001,0.3259 -0.4536,0.3366 -0.9002,0.68234 -1.3707,0.99535 -0.6993,0.51581 -1.3929,1.03895 -2.093,1.55338 -0.9855,0.66805 -1.9734,1.33324 -2.9773,1.9735 -0.954,0.59581 -1.9143,1.18169 -2.88665,1.74705 -1.00124,0.57178 -1.99631,1.1545 -3.00355,1.71548 -1.5344,0.80219 -3.06823,1.60615 -4.56555,2.47652 -2.11428,1.23627 -4.19355,2.52833 -6.24817,3.86149 -1.78693,1.09387 -3.6048,2.16229 -5.60106,2.83286 -2.51717,0.90587 -1.23608,4.46567 1.28108,3.55981 z" />
      <path
         style="fill:#000000;fill-opacity:1;stroke:none;stroke-width:1.00157;stroke-dasharray:none;stroke-opacity:1"
         id="path10942"
         d="m 984.35488,219.70878 c 1.41365,-1.30089 2.82047,-2.60811 4.27142,-3.8676 1.60228,-1.4131 3.30452,-2.70004 5.0593,-3.9158 1.7739,-1.18539 3.57791,-2.32476 5.36267,-3.49371 1.46313,-0.98994 2.97283,-1.90684 4.46713,-2.84809 1.4476,-0.91507 2.8322,-1.92269 4.2281,-2.91326 0.9918,-0.66392 1.9441,-1.38331 2.9072,-2.0875 0.2993,-0.21086 0.1735,-0.12713 0.3734,-0.25707 2.2327,-1.47369 0.1486,-4.6312 -2.0841,-3.15751 v 0 c -0.3142,0.20901 -0.1392,0.0898 -0.5227,0.36083 -0.9484,0.69375 -1.8864,1.40231 -2.8635,2.05597 -1.3392,0.95052 -2.6669,1.91852 -4.0552,2.79762 -1.51281,0.95348 -3.04159,1.88181 -4.52324,2.88413 -1.81265,1.18725 -3.64549,2.34349 -5.44565,3.54964 -1.86646,1.29537 -3.67857,2.66465 -5.38405,4.1682 -1.45821,1.26681 -2.87538,2.57796 -4.29466,3.88795 -2.00549,1.77051 0.49839,4.60671 2.50388,2.8362 z" />
      <path
         style="fill:#000000;fill-opacity:1;stroke:none;stroke-width:1.00157;stroke-dasharray:none;stroke-opacity:1"
         id="path10944"
         d="m 1009.7689,122.97688 c -0.1371,1.54527 -0.2881,3.08922 -0.4347,4.6336 -0.1605,1.60488 -0.2767,3.21285 -0.341,4.82433 -0.067,1.66598 -0.1033,3.3321 -0.096,4.99934 -0.01,1.81021 0.089,3.61776 0.1912,5.42434 0.106,2.01044 0.2636,4.01765 0.4142,6.02511 0.1587,2.0013 0.327,4.00179 0.4881,6.0029 0.1635,1.97848 0.4296,3.94595 0.6563,5.91758 0.2215,1.9182 0.2383,3.85025 0.2441,5.77854 -0.026,2.00004 -0.082,3.99971 -0.1379,5.99913 -0.041,1.97027 -0.1033,3.93977 -0.1701,5.90929 -0.066,1.68285 -0.1065,3.3665 -0.1324,5.05039 0.014,0.88576 -0.1096,1.76401 -0.1796,2.64522 -0.08,1.68543 -0.1741,3.36925 -0.3023,5.05186 -0.1653,2.15614 -0.427,4.30295 -0.7226,6.44459 -0.071,0.54573 -0.1545,1.08951 -0.2471,1.63193 -0.4478,2.63745 3.2821,3.27079 3.73,0.63334 v 0 c 0.098,-0.58125 0.1891,-1.1636 0.2649,-1.74829 0.3059,-2.218 0.5763,-4.44139 0.7472,-6.67438 0.1277,-1.67898 0.225,-3.35907 0.3015,-5.04105 0.075,-0.96092 0.208,-1.91889 0.1908,-2.88491 0.026,-1.6606 0.066,-3.32096 0.1307,-4.98053 0.067,-1.97706 0.1299,-3.95411 0.1708,-5.93192 0.057,-2.03849 0.1142,-4.07724 0.1394,-6.11637 -0.01,-2.06886 -0.03,-4.14145 -0.2689,-6.19926 -0.2221,-1.92879 -0.4822,-3.85353 -0.6437,-5.78888 -0.1606,-1.99421 -0.3282,-3.9878 -0.4865,-5.98219 -0.1489,-1.98415 -0.3048,-3.96803 -0.4096,-5.95513 -0.098,-1.74125 -0.1931,-3.48339 -0.1853,-5.22818 -0.01,-1.61163 0.029,-3.22213 0.093,-4.83255 0.061,-1.54222 0.1738,-3.0809 0.3271,-4.61678 0.1469,-1.54813 0.2983,-3.09583 0.4357,-4.64484 0.2448,-2.66398 -3.5226,-3.01021 -3.7674,-0.34623 z" />
      <path
         style="fill:#000000;fill-opacity:1;stroke:none;stroke-width:1.00157;stroke-dasharray:none;stroke-opacity:1"
         id="path10946"
         d="m 980.77302,125.46251 c 1.49371,-0.38563 2.99217,-0.75398 4.49596,-1.09826 1.1003,-0.25489 2.21882,-0.39156 3.34182,-0.49193 1.04715,-0.0812 2.09765,-0.0966 3.1474,-0.10561 1.20401,-0.004 2.40808,-0.009 3.61206,0.002 1.25639,0.025 2.51277,0.0488 3.76935,0.0626 1.11329,0.0287 2.22679,0.0501 3.33979,0.0896 0.9016,0.0482 1.8033,0.0922 2.7053,0.13217 0.8039,0.0426 1.6041,0.13362 2.4072,0.19001 0.5368,0.058 1.0676,0.0225 1.6043,-0.0138 2.6662,-0.21966 2.3555,-3.99019 -0.3107,-3.77053 v 0 c -0.3443,0.0401 -0.6841,0.0455 -1.0302,0.0102 -0.8351,-0.0579 -1.6669,-0.15601 -2.5033,-0.1955 -0.9132,-0.0404 -1.8261,-0.0856 -2.739,-0.13351 -1.1437,-0.0403 -2.2879,-0.063 -3.43196,-0.0917 -1.25991,-0.0138 -2.51961,-0.038 -3.77935,-0.0627 -1.2254,-0.0101 -2.45089,-0.006 -3.67631,-0.002 -1.15155,0.0101 -2.3039,0.0287 -3.4524,0.12058 -1.29349,0.11629 -2.58153,0.27949 -3.84877,0.57235 -1.56124,0.35784 -3.11728,0.73937 -4.6676,1.14182 -2.57685,0.71872 -1.56044,4.36293 1.01641,3.64422 z" />
    </g>
  </g>
</svg>
